<svg width="14" height="14" viewBox="0 0 14 14" fill="none" xmlns="http://www.w3.org/2000/svg">
	<g filter="url(#filter0_d_17_2)">
		<path
			d="M7.47531 2.47531C8.04156 1.90904 8.04156 0.990955 7.47531 0.424695C6.90904 -0.141565 5.99096 -0.141565 5.4247 0.424695L0.424695 5.4247C-0.141565 5.99096 -0.141565 6.90904 0.424695 7.47531L5.4247 12.4753C5.99096 13.0416 6.90904 13.0416 7.47531 12.4753C8.04156 11.909 8.04156 10.991 7.47531 10.4247L5.00062 7.95001H12.51C13.3384 7.95001 14.01 7.27844 14.01 6.45001C14.01 5.62158 13.3384 4.95001 12.51 4.95001H5.0006L7.47531 2.47531Z"
			fill="context-fill" />
	</g>
	<path
		d="M7.47531 2.47531C8.04156 1.90904 8.04156 0.990955 7.47531 0.424695C6.90904 -0.141565 5.99096 -0.141565 5.4247 0.424695L0.424695 5.4247C-0.141565 5.99096 -0.141565 6.90904 0.424695 7.47531L5.4247 12.4753C5.99096 13.0416 6.90904 13.0416 7.47531 12.4753C8.04156 11.909 8.04156 10.991 7.47531 10.4247L5.00062 7.95001H12.51C13.3384 7.95001 14.01 7.27844 14.01 6.45001C14.01 5.62158 13.3384 4.95001 12.51 4.95001H5.0006L7.47531 2.47531Z"
		fill="url(#paint0_linear_17_2)" />
	<g filter="url(#filter1_i_17_2)">
		<path
			d="M7.47531 2.47531C8.04156 1.90904 8.04156 0.990955 7.47531 0.424695C6.90904 -0.141565 5.99096 -0.141565 5.4247 0.424695L0.424695 5.4247C-0.141565 5.99096 -0.141565 6.90904 0.424695 7.47531L5.4247 12.4753C5.99096 13.0416 6.90904 13.0416 7.47531 12.4753C8.04156 11.909 8.04156 10.991 7.47531 10.4247L5.00062 7.95001H12.51C13.3384 7.95001 14.01 7.27844 14.01 6.45001C14.01 5.62158 13.3384 4.95001 12.51 4.95001H5.0006L7.47531 2.47531Z"
			fill="white" fill-opacity="0.01" />
	</g>
	<defs>
		<filter id="filter0_d_17_2" x="0" y="0" width="14.01" height="13.9"
			filterUnits="userSpaceOnUse" color-interpolation-filters="sRGB">
			<feFlood flood-opacity="0" result="BackgroundImageFix" />
			<feColorMatrix in="SourceAlpha" type="matrix"
				values="0 0 0 0 0 0 0 0 0 0 0 0 0 0 0 0 0 0 127 0" result="hardAlpha" />
			<feOffset dy="1" />
			<feComposite in2="hardAlpha" operator="out" />
			<feColorMatrix type="matrix" values="0 0 0 0 1 0 0 0 0 1 0 0 0 0 1 0 0 0 0.7 0" />
			<feBlend mode="normal" in2="BackgroundImageFix" result="effect1_dropShadow_17_2" />
			<feBlend mode="normal" in="SourceGraphic" in2="effect1_dropShadow_17_2" result="shape" />
		</filter>
		<filter id="filter1_i_17_2" x="0" y="0" width="15.01" height="13.9"
			filterUnits="userSpaceOnUse" color-interpolation-filters="sRGB">
			<feFlood flood-opacity="0" result="BackgroundImageFix" />
			<feBlend mode="normal" in="SourceGraphic" in2="BackgroundImageFix" result="shape" />
			<feColorMatrix in="SourceAlpha" type="matrix"
				values="0 0 0 0 0 0 0 0 0 0 0 0 0 0 0 0 0 0 127 0" result="hardAlpha" />
			<feOffset dx="1" dy="1" />
			<feGaussianBlur stdDeviation="0.75" />
			<feComposite in2="hardAlpha" operator="arithmetic" k2="-1" k3="1" />
			<feColorMatrix type="matrix" values="0 0 0 0 0 0 0 0 0 0 0 0 0 0 0 0 0 0 0.15 0" />
			<feBlend mode="normal" in2="shape" result="effect1_innerShadow_17_2" />
		</filter>
		<linearGradient id="paint0_linear_17_2" x1="7" y1="0.5" x2="7" y2="12.5"
			gradientUnits="userSpaceOnUse">
			<stop stop-opacity="0" />
			<stop offset="0.5" stop-opacity="0" />
			<stop offset="1" stop-opacity="0.2" />
		</linearGradient>
	</defs>
</svg>