<svg width="14" height="13" viewBox="0 0 14 13" fill="none" xmlns="http://www.w3.org/2000/svg">
	<path
		d="M6.5347 2.47531C5.96844 1.90904 5.96844 0.990955 6.5347 0.424695C7.10097 -0.141565 8.01905 -0.141565 8.58531 0.424695L13.5853 5.4247C14.1516 5.99096 14.1516 6.90904 13.5853 7.47531L8.58531 12.4753C8.01905 13.0416 7.10097 13.0416 6.5347 12.4753C5.96844 11.909 5.96844 10.991 6.5347 10.4247L9.00939 7.95001H1.5C0.67157 7.95001 -2.86102e-06 7.27844 -2.86102e-06 6.45001C-2.86102e-06 5.62158 0.67157 4.95001 1.5 4.95001H9.00941L6.5347 2.47531Z"
		fill="context-fill" />
	<path
		d="M6.5347 2.47531C5.96844 1.90904 5.96844 0.990955 6.5347 0.424695C7.10097 -0.141565 8.01905 -0.141565 8.58531 0.424695L13.5853 5.4247C14.1516 5.99096 14.1516 6.90904 13.5853 7.47531L8.58531 12.4753C8.01905 13.0416 7.10097 13.0416 6.5347 12.4753C5.96844 11.909 5.96844 10.991 6.5347 10.4247L9.00939 7.95001H1.5C0.67157 7.95001 -2.86102e-06 7.27844 -2.86102e-06 6.45001C-2.86102e-06 5.62158 0.67157 4.95001 1.5 4.95001H9.00941L6.5347 2.47531Z"
		fill="url(#paint0_linear_17_3)" />
	<g filter="url(#filter0_i_17_3)">
		<path
			d="M6.5347 2.47531C5.96844 1.90904 5.96844 0.990955 6.5347 0.424695C7.10097 -0.141565 8.01905 -0.141565 8.58531 0.424695L13.5853 5.4247C14.1516 5.99096 14.1516 6.90904 13.5853 7.47531L8.58531 12.4753C8.01905 13.0416 7.10097 13.0416 6.5347 12.4753C5.96844 11.909 5.96844 10.991 6.5347 10.4247L9.00939 7.95001H1.5C0.67157 7.95001 -2.86102e-06 7.27844 -2.86102e-06 6.45001C-2.86102e-06 5.62158 0.67157 4.95001 1.5 4.95001H9.00941L6.5347 2.47531Z"
			fill="white" fill-opacity="0.01" />
	</g>
	<defs>
		<filter id="filter0_i_17_3" x="0" y="0" width="15.01" height="13.9"
			filterUnits="userSpaceOnUse" color-interpolation-filters="sRGB">
			<feFlood flood-opacity="0" result="BackgroundImageFix" />
			<feBlend mode="normal" in="SourceGraphic" in2="BackgroundImageFix" result="shape" />
			<feColorMatrix in="SourceAlpha" type="matrix"
				values="0 0 0 0 0 0 0 0 0 0 0 0 0 0 0 0 0 0 127 0" result="hardAlpha" />
			<feOffset dx="1" dy="1" />
			<feGaussianBlur stdDeviation="0.75" />
			<feComposite in2="hardAlpha" operator="arithmetic" k2="-1" k3="1" />
			<feColorMatrix type="matrix" values="0 0 0 0 0 0 0 0 0 0 0 0 0 0 0 0 0 0 0.15 0" />
			<feBlend mode="normal" in2="shape" result="effect1_innerShadow_17_3" />
		</filter>
		<linearGradient id="paint0_linear_17_3" x1="7.01001" y1="0.5" x2="7.01001" y2="12.5"
			gradientUnits="userSpaceOnUse">
			<stop stop-opacity="0" />
			<stop offset="0.5" stop-opacity="0" />
			<stop offset="1" stop-opacity="0.2" />
		</linearGradient>
	</defs>
</svg>