<svg width="15" height="15" viewBox="0 0 15 15" fill="none" xmlns="http://www.w3.org/2000/svg">
<path d="M13.2851 7.5C13.2851 7.3275 13.2774 7.1625 13.2619 6.99L14.6966 5.9325C15.0052 5.7075 15.09 5.2875 14.8972 4.9575L13.4548 2.535C13.2619 2.205 12.8454 2.07 12.4906 2.22L10.8322 2.9025C10.5468 2.7075 10.246 2.535 9.92973 2.3925L9.70604 0.66C9.65976 0.285 9.32808 0 8.94241 0H6.0653C5.67192 0 5.34024 0.285 5.29396 0.66L5.07027 2.3925C4.75402 2.535 4.45319 2.7075 4.1678 2.9025L2.50941 2.22C2.15459 2.07 1.73807 2.205 1.54523 2.535L0.102818 4.965C-0.0900173 5.295 -0.00516959 5.7075 0.303368 5.94L1.73807 6.9975C1.72264 7.1625 1.71493 7.3275 1.71493 7.5C1.71493 7.6725 1.72264 7.8375 1.73807 8.01L0.303368 9.0675C-0.00516959 9.2925 -0.0900173 9.7125 0.102818 10.0425L1.54523 12.465C1.73807 12.795 2.15459 12.93 2.50941 12.78L4.1678 12.0975C4.45319 12.2925 4.75402 12.465 5.07027 12.6075L5.29396 14.34C5.34024 14.715 5.67192 15 6.05759 15H8.9347C9.32037 15 9.65205 14.715 9.69833 14.34L9.92202 12.6075C10.2383 12.465 10.5391 12.2925 10.8245 12.0975L12.4829 12.78C12.8377 12.93 13.2542 12.795 13.4471 12.465L14.8895 10.0425C15.0823 9.7125 14.9975 9.3 14.6889 9.0675L13.2542 8.01C13.2774 7.8375 13.2851 7.6725 13.2851 7.5ZM7.53085 10.125C6.04216 10.125 4.83115 8.9475 4.83115 7.5C4.83115 6.0525 6.04216 4.875 7.53085 4.875C9.01955 4.875 10.2306 6.0525 10.2306 7.5C10.2306 8.9475 9.01955 10.125 7.53085 10.125Z" fill="context-fill"/>
<path d="M13.2851 7.5C13.2851 7.3275 13.2774 7.1625 13.2619 6.99L14.6966 5.9325C15.0052 5.7075 15.09 5.2875 14.8972 4.9575L13.4548 2.535C13.2619 2.205 12.8454 2.07 12.4906 2.22L10.8322 2.9025C10.5468 2.7075 10.246 2.535 9.92973 2.3925L9.70604 0.66C9.65976 0.285 9.32808 0 8.94241 0H6.0653C5.67192 0 5.34024 0.285 5.29396 0.66L5.07027 2.3925C4.75402 2.535 4.45319 2.7075 4.1678 2.9025L2.50941 2.22C2.15459 2.07 1.73807 2.205 1.54523 2.535L0.102818 4.965C-0.0900173 5.295 -0.00516959 5.7075 0.303368 5.94L1.73807 6.9975C1.72264 7.1625 1.71493 7.3275 1.71493 7.5C1.71493 7.6725 1.72264 7.8375 1.73807 8.01L0.303368 9.0675C-0.00516959 9.2925 -0.0900173 9.7125 0.102818 10.0425L1.54523 12.465C1.73807 12.795 2.15459 12.93 2.50941 12.78L4.1678 12.0975C4.45319 12.2925 4.75402 12.465 5.07027 12.6075L5.29396 14.34C5.34024 14.715 5.67192 15 6.05759 15H8.9347C9.32037 15 9.65205 14.715 9.69833 14.34L9.92202 12.6075C10.2383 12.465 10.5391 12.2925 10.8245 12.0975L12.4829 12.78C12.8377 12.93 13.2542 12.795 13.4471 12.465L14.8895 10.0425C15.0823 9.7125 14.9975 9.3 14.6889 9.0675L13.2542 8.01C13.2774 7.8375 13.2851 7.6725 13.2851 7.5ZM7.53085 10.125C6.04216 10.125 4.83115 8.9475 4.83115 7.5C4.83115 6.0525 6.04216 4.875 7.53085 4.875C9.01955 4.875 10.2306 6.0525 10.2306 7.5C10.2306 8.9475 9.01955 10.125 7.53085 10.125Z" fill="url(#paint0_linear_161_8)"/>
<g filter="url(#filter0_i_161_8)">
<path d="M13.2851 7.5C13.2851 7.3275 13.2774 7.1625 13.2619 6.99L14.6966 5.9325C15.0052 5.7075 15.09 5.2875 14.8972 4.9575L13.4548 2.535C13.2619 2.205 12.8454 2.07 12.4906 2.22L10.8322 2.9025C10.5468 2.7075 10.246 2.535 9.92973 2.3925L9.70604 0.66C9.65976 0.285 9.32808 0 8.94241 0H6.0653C5.67192 0 5.34024 0.285 5.29396 0.66L5.07027 2.3925C4.75402 2.535 4.45319 2.7075 4.1678 2.9025L2.50941 2.22C2.15459 2.07 1.73807 2.205 1.54523 2.535L0.102818 4.965C-0.0900173 5.295 -0.00516959 5.7075 0.303368 5.94L1.73807 6.9975C1.72264 7.1625 1.71493 7.3275 1.71493 7.5C1.71493 7.6725 1.72264 7.8375 1.73807 8.01L0.303368 9.0675C-0.00516959 9.2925 -0.0900173 9.7125 0.102818 10.0425L1.54523 12.465C1.73807 12.795 2.15459 12.93 2.50941 12.78L4.1678 12.0975C4.45319 12.2925 4.75402 12.465 5.07027 12.6075L5.29396 14.34C5.34024 14.715 5.67192 15 6.05759 15H8.9347C9.32037 15 9.65205 14.715 9.69833 14.34L9.92202 12.6075C10.2383 12.465 10.5391 12.2925 10.8245 12.0975L12.4829 12.78C12.8377 12.93 13.2542 12.795 13.4471 12.465L14.8895 10.0425C15.0823 9.7125 14.9975 9.3 14.6889 9.0675L13.2542 8.01C13.2774 7.8375 13.2851 7.6725 13.2851 7.5ZM7.53085 10.125C6.04216 10.125 4.83115 8.9475 4.83115 7.5C4.83115 6.0525 6.04216 4.875 7.53085 4.875C9.01955 4.875 10.2306 6.0525 10.2306 7.5C10.2306 8.9475 9.01955 10.125 7.53085 10.125Z" fill="white" fill-opacity="0.01"/>
</g>
<defs>
<filter id="filter0_i_161_8" x="0" y="0" width="16" height="16" filterUnits="userSpaceOnUse" color-interpolation-filters="sRGB">
<feFlood flood-opacity="0" result="BackgroundImageFix"/>
<feBlend mode="normal" in="SourceGraphic" in2="BackgroundImageFix" result="shape"/>
<feColorMatrix in="SourceAlpha" type="matrix" values="0 0 0 0 0 0 0 0 0 0 0 0 0 0 0 0 0 0 127 0" result="hardAlpha"/>
<feOffset dx="1" dy="1"/>
<feGaussianBlur stdDeviation="0.75"/>
<feComposite in2="hardAlpha" operator="arithmetic" k2="-1" k3="1"/>
<feColorMatrix type="matrix" values="0 0 0 0 0 0 0 0 0 0 0 0 0 0 0 0 0 0 0.15 0"/>
<feBlend mode="normal" in2="shape" result="effect1_innerShadow_161_8"/>
</filter>
<linearGradient id="paint0_linear_161_8" x1="7.50406" y1="-1.87489e-08" x2="7.50406" y2="15" gradientUnits="userSpaceOnUse">
<stop stop-opacity="0"/>
<stop offset="0.5" stop-opacity="0"/>
<stop offset="1" stop-opacity="0.2"/>
</linearGradient>
</defs>
</svg>
