<svg width="15" height="15" viewBox="0 0 15 15" fill="none" xmlns="http://www.w3.org/2000/svg">
	<g filter="url(#filter0_i_72_12)">
		<path d="M13 8H15L7.5 0.5L0 8H2V15H6V9.5C6 8.67 6.67 8 7.5 8C8.33 8 9 8.67 9 9.5V15H13V8Z"
			fill="context-fill" />
		<path d="M13 4.5V0H11V2.5L13 4.5Z" fill="context-fill" />
		<path d="M13 8H15L7.5 0.5L0 8H2V15H6V9.5C6 8.67 6.67 8 7.5 8C8.33 8 9 8.67 9 9.5V15H13V8Z"
			fill="url(#paint0_linear_72_12)" />
		<path d="M13 4.5V0H11V2.5L13 4.5Z" fill="url(#paint1_linear_72_12)" />
		<path d="M13 8H15L7.5 0.5L0 8H2V15H6V9.5C6 8.67 6.67 8 7.5 8C8.33 8 9 8.67 9 9.5V15H13V8Z"
			fill="white" fill-opacity="0.01" />
		<path d="M13 4.5V0H11V2.5L13 4.5Z" fill="white" fill-opacity="0.01" />
	</g>
	<defs>
		<filter id="filter0_i_72_12" x="0" y="0" width="16" height="16" filterUnits="userSpaceOnUse"
			color-interpolation-filters="sRGB">
			<feFlood flood-opacity="0" result="BackgroundImageFix" />
			<feBlend mode="normal" in="SourceGraphic" in2="BackgroundImageFix" result="shape" />
			<feColorMatrix in="SourceAlpha" type="matrix"
				values="0 0 0 0 0 0 0 0 0 0 0 0 0 0 0 0 0 0 127 0" result="hardAlpha" />
			<feOffset dx="1" dy="1" />
			<feGaussianBlur stdDeviation="0.75" />
			<feComposite in2="hardAlpha" operator="arithmetic" k2="-1" k3="1" />
			<feColorMatrix type="matrix" values="0 0 0 0 0 0 0 0 0 0 0 0 0 0 0 0 0 0 0.15 0" />
			<feBlend mode="normal" in2="shape" result="effect1_innerShadow_72_12" />
		</filter>
		<linearGradient id="paint0_linear_72_12" x1="7.49464" y1="1.06202" x2="7.49464" y2="14.5504"
			gradientUnits="userSpaceOnUse">
			<stop stop-opacity="0" />
			<stop offset="0.5" stop-opacity="0" />
			<stop offset="1" stop-opacity="0.2" />
		</linearGradient>
		<linearGradient id="paint1_linear_72_12" x1="11.9993" y1="0.174419" x2="11.9993"
			y2="4.36047" gradientUnits="userSpaceOnUse">
			<stop stop-opacity="0" />
			<stop offset="0.5" stop-opacity="0" />
			<stop offset="1" stop-opacity="0.2" />
		</linearGradient>
	</defs>
</svg>