<svg width="26" height="15" viewBox="0 0 26 15" fill="none" xmlns="http://www.w3.org/2000/svg">
	<path
		d="M14.9613 4.46521L13.0542 5.54768C12.7541 5.72165 12.425 5.79897 12.0958 5.79897C11.4279 5.79897 10.7696 5.45103 10.4114 4.82281C9.87899 3.89497 10.2081 2.71585 11.1278 2.18428L13.1317 1.04381C12.3088 0.396263 11.2827 0 10.1597 0C7.4879 0 5.31946 2.16495 5.31946 4.83247C5.31946 5.45103 5.4453 6.04059 5.65828 6.59149L0.566312 11.6946C-0.188771 12.4485 -0.188771 13.6759 0.566312 14.4298C0.943853 14.8067 1.43756 15 1.93127 15C2.42498 15 2.91868 14.8067 3.29622 14.4298L8.39787 9.33634C8.93998 9.54897 9.53049 9.67461 10.1597 9.67461C12.8316 9.67461 15 7.50966 15 4.84214C15 4.71649 14.971 4.59085 14.9613 4.46521Z"
		fill="context-fill" />
	<path d="M19 6H26L22.5 9.5L19 6Z" fill="context-fill" />
	<path
		d="M14.9613 4.46521L13.0542 5.54768C12.7541 5.72165 12.425 5.79897 12.0958 5.79897C11.4279 5.79897 10.7696 5.45103 10.4114 4.82281C9.87899 3.89497 10.2081 2.71585 11.1278 2.18428L13.1317 1.04381C12.3088 0.396263 11.2827 0 10.1597 0C7.4879 0 5.31946 2.16495 5.31946 4.83247C5.31946 5.45103 5.4453 6.04059 5.65828 6.59149L0.566312 11.6946C-0.188771 12.4485 -0.188771 13.6759 0.566312 14.4298C0.943853 14.8067 1.43756 15 1.93127 15C2.42498 15 2.91868 14.8067 3.29622 14.4298L8.39787 9.33634C8.93998 9.54897 9.53049 9.67461 10.1597 9.67461C12.8316 9.67461 15 7.50966 15 4.84214C15 4.71649 14.971 4.59085 14.9613 4.46521Z"
		fill="url(#paint0_linear_22_78)" />
	<path d="M19 6H26L22.5 9.5L19 6Z" fill="url(#paint1_linear_22_78)" />
	<g filter="url(#filter0_i_22_78)">
		<path
			d="M14.9613 4.46521L13.0542 5.54768C12.7541 5.72165 12.425 5.79897 12.0958 5.79897C11.4279 5.79897 10.7696 5.45103 10.4114 4.82281C9.87899 3.89497 10.2081 2.71585 11.1278 2.18428L13.1317 1.04381C12.3088 0.396263 11.2827 0 10.1597 0C7.4879 0 5.31946 2.16495 5.31946 4.83247C5.31946 5.45103 5.4453 6.04059 5.65828 6.59149L0.566312 11.6946C-0.188771 12.4485 -0.188771 13.6759 0.566312 14.4298C0.943853 14.8067 1.43756 15 1.93127 15C2.42498 15 2.91868 14.8067 3.29622 14.4298L8.39787 9.33634C8.93998 9.54897 9.53049 9.67461 10.1597 9.67461C12.8316 9.67461 15 7.50966 15 4.84214C15 4.71649 14.971 4.59085 14.9613 4.46521Z"
			fill="white" fill-opacity="0.01" />
	</g>
	<g filter="url(#filter1_i_22_78)">
		<path d="M19 6H26L22.5 9.5L19 6Z" fill="white" fill-opacity="0.01" />
	</g>
	<defs>
		<filter id="filter0_i_22_78" x="0" y="0" width="16" height="16" filterUnits="userSpaceOnUse"
			color-interpolation-filters="sRGB">
			<feFlood flood-opacity="0" result="BackgroundImageFix" />
			<feBlend mode="normal" in="SourceGraphic" in2="BackgroundImageFix" result="shape" />
			<feColorMatrix in="SourceAlpha" type="matrix"
				values="0 0 0 0 0 0 0 0 0 0 0 0 0 0 0 0 0 0 127 0" result="hardAlpha" />
			<feOffset dx="1" dy="1" />
			<feGaussianBlur stdDeviation="0.75" />
			<feComposite in2="hardAlpha" operator="arithmetic" k2="-1" k3="1" />
			<feColorMatrix type="matrix" values="0 0 0 0 0 0 0 0 0 0 0 0 0 0 0 0 0 0 0.15 0" />
			<feBlend mode="normal" in2="shape" result="effect1_innerShadow_22_78" />
		</filter>
		<filter id="filter1_i_22_78" x="19" y="6" width="8" height="4.5"
			filterUnits="userSpaceOnUse" color-interpolation-filters="sRGB">
			<feFlood flood-opacity="0" result="BackgroundImageFix" />
			<feBlend mode="normal" in="SourceGraphic" in2="BackgroundImageFix" result="shape" />
			<feColorMatrix in="SourceAlpha" type="matrix"
				values="0 0 0 0 0 0 0 0 0 0 0 0 0 0 0 0 0 0 127 0" result="hardAlpha" />
			<feOffset dx="1" dy="1" />
			<feGaussianBlur stdDeviation="0.75" />
			<feComposite in2="hardAlpha" operator="arithmetic" k2="-1" k3="1" />
			<feColorMatrix type="matrix" values="0 0 0 0 0 0 0 0 0 0 0 0 0 0 0 0 0 0 0.15 0" />
			<feBlend mode="normal" in2="shape" result="effect1_innerShadow_22_78" />
		</filter>
		<linearGradient id="paint0_linear_22_78" x1="7.49464" y1="0.581395" x2="7.49464"
			y2="14.5349" gradientUnits="userSpaceOnUse">
			<stop stop-opacity="0" />
			<stop offset="0.5" stop-opacity="0" />
			<stop offset="1" stop-opacity="0.2" />
		</linearGradient>
		<linearGradient id="paint1_linear_22_78" x1="22.4975" y1="-3.18475e-07" x2="22.4975" y2="15"
			gradientUnits="userSpaceOnUse">
			<stop stop-opacity="0" />
			<stop offset="0.5" stop-opacity="0" />
			<stop offset="1" stop-opacity="0.2" />
		</linearGradient>
	</defs>
</svg>