<svg width="14" height="15" viewBox="0 0 14 15" fill="none" xmlns="http://www.w3.org/2000/svg">
	<path
		d="M14.0012 6.70999V0L11.7872 2.21396C10.5402 1.12003 8.9288 0.473663 7.23114 0.440002C5.32116 0.399994 3.54116 1.10999 2.17114 2.42999C0.811153 3.73999 0.041164 5.50998 0.00115546 7.40997C-0.0688519 11.32 3.05114 14.57 6.97116 14.64H7.10116L7.11114 14.63C9.59115 14.63 11.9011 13.32 13.1912 11.19C13.5312 10.61 13.3512 9.85999 12.7711 9.50998C12.1912 9.16998 11.4412 9.34998 11.0912 9.92999C10.2512 11.32 8.73117 12.18 7.11114 12.18H7.02114C4.46115 12.13 2.41116 10 2.46115 7.44C2.48114 6.19998 2.98114 5.03998 3.88116 4.17999C4.77114 3.31998 5.96115 2.85999 7.19116 2.87997C8.25128 2.89926 9.25772 3.28592 10.0567 3.94449L7.29116 6.70999H14.0012Z"
		fill="context-fill" />
	<path
		d="M14.0012 6.70999V0L11.7872 2.21396C10.5402 1.12003 8.9288 0.473663 7.23114 0.440002C5.32116 0.399994 3.54116 1.10999 2.17114 2.42999C0.811153 3.73999 0.041164 5.50998 0.00115546 7.40997C-0.0688519 11.32 3.05114 14.57 6.97116 14.64H7.10116L7.11114 14.63C9.59115 14.63 11.9011 13.32 13.1912 11.19C13.5312 10.61 13.3512 9.85999 12.7711 9.50998C12.1912 9.16998 11.4412 9.34998 11.0912 9.92999C10.2512 11.32 8.73117 12.18 7.11114 12.18H7.02114C4.46115 12.13 2.41116 10 2.46115 7.44C2.48114 6.19998 2.98114 5.03998 3.88116 4.17999C4.77114 3.31998 5.96115 2.85999 7.19116 2.87997C8.25128 2.89926 9.25772 3.28592 10.0567 3.94449L7.29116 6.70999H14.0012Z"
		fill="url(#paint0_linear_19_28)" />
	<g filter="url(#filter0_i_19_28)">
		<path
			d="M14.0012 6.70999V0L11.7872 2.21396C10.5402 1.12003 8.9288 0.473663 7.23114 0.440002C5.32116 0.399994 3.54116 1.10999 2.17114 2.42999C0.811153 3.73999 0.041164 5.50998 0.00115546 7.40997C-0.0688519 11.32 3.05114 14.57 6.97116 14.64H7.10116L7.11114 14.63C9.59115 14.63 11.9011 13.32 13.1912 11.19C13.5312 10.61 13.3512 9.85999 12.7711 9.50998C12.1912 9.16998 11.4412 9.34998 11.0912 9.92999C10.2512 11.32 8.73117 12.18 7.11114 12.18H7.02114C4.46115 12.13 2.41116 10 2.46115 7.44C2.48114 6.19998 2.98114 5.03998 3.88116 4.17999C4.77114 3.31998 5.96115 2.85999 7.19116 2.87997C8.25128 2.89926 9.25772 3.28592 10.0567 3.94449L7.29116 6.70999H14.0012Z"
			fill="white" fill-opacity="0.01" />
	</g>
	<defs>
		<filter id="filter0_i_19_28" x="0" y="0" width="15.0012" height="15.64"
			filterUnits="userSpaceOnUse" color-interpolation-filters="sRGB">
			<feFlood flood-opacity="0" result="BackgroundImageFix" />
			<feBlend mode="normal" in="SourceGraphic" in2="BackgroundImageFix" result="shape" />
			<feColorMatrix in="SourceAlpha" type="matrix"
				values="0 0 0 0 0 0 0 0 0 0 0 0 0 0 0 0 0 0 127 0" result="hardAlpha" />
			<feOffset dx="1" dy="1" />
			<feGaussianBlur stdDeviation="0.75" />
			<feComposite in2="hardAlpha" operator="arithmetic" k2="-1" k3="1" />
			<feColorMatrix type="matrix" values="0 0 0 0 0 0 0 0 0 0 0 0 0 0 0 0 0 0 0.15 0" />
			<feBlend mode="normal" in2="shape" result="effect1_innerShadow_19_28" />
		</filter>
		<linearGradient id="paint0_linear_19_28" x1="6.99557" y1="0.567441" x2="6.99558" y2="14.186"
			gradientUnits="userSpaceOnUse">
			<stop stop-opacity="0" />
			<stop offset="0.5" stop-opacity="0" />
			<stop offset="1" stop-opacity="0.2" />
		</linearGradient>
	</defs>
</svg>