<svg width="17" height="16" viewBox="0 0 17 16" fill="none" xmlns="http://www.w3.org/2000/svg">
	<path
		d="M8.17299 1.5L9.74299 6.34H14.833L10.713 9.33L12.283 14.17L8.16299 11.18L4.04299 14.17L5.61299 9.33L1.50299 6.34H6.59299L8.16299 1.5M8.17299 0C7.52299 0 6.94299 0.42 6.74299 1.04L5.50299 4.85H1.50299C0.852987 4.85 0.272987 5.27 0.0729874 5.89C-0.127013 6.51 0.0929874 7.19 0.622987 7.57L3.86299 9.92L2.62299 13.73C2.42299 14.35 2.64299 15.03 3.17299 15.41C3.43299 15.6 3.74299 15.7 4.05299 15.7C4.36299 15.7 4.67299 15.6 4.93299 15.41L8.17299 13.06L11.413 15.41C11.673 15.6 11.983 15.7 12.293 15.7C12.603 15.7 12.913 15.6 13.173 15.41C13.703 15.03 13.923 14.35 13.713 13.73L12.473 9.92L15.673 7.59C16.073 7.32 16.333 6.87 16.333 6.35C16.333 5.52 15.663 4.85 14.833 4.85H10.823L9.58299 1.04C9.39299 0.42 8.82299 0 8.17299 0Z"
		fill="context-fill" />
	<path
		d="M8.17299 1.5L9.74299 6.34H14.833L10.713 9.33L12.283 14.17L8.16299 11.18L4.04299 14.17L5.61299 9.33L1.50299 6.34H6.59299L8.16299 1.5M8.17299 0C7.52299 0 6.94299 0.42 6.74299 1.04L5.50299 4.85H1.50299C0.852987 4.85 0.272987 5.27 0.0729874 5.89C-0.127013 6.51 0.0929874 7.19 0.622987 7.57L3.86299 9.92L2.62299 13.73C2.42299 14.35 2.64299 15.03 3.17299 15.41C3.43299 15.6 3.74299 15.7 4.05299 15.7C4.36299 15.7 4.67299 15.6 4.93299 15.41L8.17299 13.06L11.413 15.41C11.673 15.6 11.983 15.7 12.293 15.7C12.603 15.7 12.913 15.6 13.173 15.41C13.703 15.03 13.923 14.35 13.713 13.73L12.473 9.92L15.673 7.59C16.073 7.32 16.333 6.87 16.333 6.35C16.333 5.52 15.663 4.85 14.833 4.85H10.823L9.58299 1.04C9.39299 0.42 8.82299 0 8.17299 0Z"
		fill="url(#paint0_linear_21_34)" />
	<g filter="url(#filter0_i_21_34)">
		<path
			d="M8.17299 1.5L9.74299 6.34H14.833L10.713 9.33L12.283 14.17L8.16299 11.18L4.04299 14.17L5.61299 9.33L1.50299 6.34H6.59299L8.16299 1.5M8.17299 0C7.52299 0 6.94299 0.42 6.74299 1.04L5.50299 4.85H1.50299C0.852987 4.85 0.272987 5.27 0.0729874 5.89C-0.127013 6.51 0.0929874 7.19 0.622987 7.57L3.86299 9.92L2.62299 13.73C2.42299 14.35 2.64299 15.03 3.17299 15.41C3.43299 15.6 3.74299 15.7 4.05299 15.7C4.36299 15.7 4.67299 15.6 4.93299 15.41L8.17299 13.06L11.413 15.41C11.673 15.6 11.983 15.7 12.293 15.7C12.603 15.7 12.913 15.6 13.173 15.41C13.703 15.03 13.923 14.35 13.713 13.73L12.473 9.92L15.673 7.59C16.073 7.32 16.333 6.87 16.333 6.35C16.333 5.52 15.663 4.85 14.833 4.85H10.823L9.58299 1.04C9.39299 0.42 8.82299 0 8.17299 0Z"
			fill="white" fill-opacity="0.01" />
	</g>
	<defs>
		<filter id="filter0_i_21_34" x="0" y="0" width="17.333" height="16.7"
			filterUnits="userSpaceOnUse" color-interpolation-filters="sRGB">
			<feFlood flood-opacity="0" result="BackgroundImageFix" />
			<feBlend mode="normal" in="SourceGraphic" in2="BackgroundImageFix" result="shape" />
			<feColorMatrix in="SourceAlpha" type="matrix"
				values="0 0 0 0 0 0 0 0 0 0 0 0 0 0 0 0 0 0 127 0" result="hardAlpha" />
			<feOffset dx="1" dy="1" />
			<feGaussianBlur stdDeviation="0.75" />
			<feComposite in2="hardAlpha" operator="arithmetic" k2="-1" k3="1" />
			<feColorMatrix type="matrix" values="0 0 0 0 0 0 0 0 0 0 0 0 0 0 0 0 0 0 0.15 0" />
			<feBlend mode="normal" in2="shape" result="effect1_innerShadow_21_34" />
		</filter>
		<linearGradient id="paint0_linear_21_34" x1="8.16066" y1="0.608527" x2="8.16066"
			y2="15.2132" gradientUnits="userSpaceOnUse">
			<stop stop-opacity="0" />
			<stop offset="0.5" stop-opacity="0" />
			<stop offset="1" stop-opacity="0.2" />
		</linearGradient>
	</defs>
</svg>