<svg width="17" height="16" viewBox="0 0 17 16" fill="none" xmlns="http://www.w3.org/2000/svg">
	<path
		d="M8.6471 1.36074C8.58029 1.15477 8.3885 1.01522 8.17197 1.01501C7.95544 1.01481 7.76338 1.15401 7.69618 1.35985L6.22875 5.85502H1.5015C1.28494 5.85502 1.093 5.99442 1.02602 6.20036C0.959035 6.40629 1.03224 6.63194 1.20735 6.75934L5.02394 9.53588L3.5659 14.0307C3.49909 14.2367 3.57243 14.4622 3.7476 14.5895C3.92276 14.7168 4.15994 14.7169 4.33518 14.5897L8.1615 11.8128L11.9878 14.5897C12.1631 14.7169 12.4002 14.7168 12.5754 14.5895C12.7506 14.4622 12.8239 14.2367 12.7571 14.0307L11.2992 9.5363L15.1252 6.75968C15.3005 6.63242 15.374 6.40671 15.3071 6.20063C15.2402 5.99456 15.0482 5.85502 14.8315 5.85502H10.105L8.6471 1.36074Z"
		fill="url(#paint0_radial_21_55)" />
	<path
		d="M8.17299 1.5L9.74299 6.34H14.833L10.713 9.33L12.283 14.17L8.16299 11.18L4.04299 14.17L5.61299 9.33L1.50299 6.34H6.59299L8.16299 1.5M8.17299 0C7.52299 0 6.94299 0.42 6.74299 1.04L5.50299 4.85H1.50299C0.852987 4.85 0.272987 5.27 0.0729874 5.89C-0.127013 6.51 0.0929874 7.19 0.622987 7.57L3.86299 9.92L2.62299 13.73C2.42299 14.35 2.64299 15.03 3.17299 15.41C3.43299 15.6 3.74299 15.7 4.05299 15.7C4.36299 15.7 4.67299 15.6 4.93299 15.41L8.17299 13.06L11.413 15.41C11.673 15.6 11.983 15.7 12.293 15.7C12.603 15.7 12.913 15.6 13.173 15.41C13.703 15.03 13.923 14.35 13.713 13.73L12.473 9.92L15.673 7.59C16.073 7.32 16.333 6.87 16.333 6.35C16.333 5.52 15.663 4.85 14.833 4.85H10.823L9.58299 1.04C9.39299 0.42 8.82299 0 8.17299 0Z"
		fill="context-fill" />
	<path
		d="M8.17299 1.5L9.74299 6.34H14.833L10.713 9.33L12.283 14.17L8.16299 11.18L4.04299 14.17L5.61299 9.33L1.50299 6.34H6.59299L8.16299 1.5M8.17299 0C7.52299 0 6.94299 0.42 6.74299 1.04L5.50299 4.85H1.50299C0.852987 4.85 0.272987 5.27 0.0729874 5.89C-0.127013 6.51 0.0929874 7.19 0.622987 7.57L3.86299 9.92L2.62299 13.73C2.42299 14.35 2.64299 15.03 3.17299 15.41C3.43299 15.6 3.74299 15.7 4.05299 15.7C4.36299 15.7 4.67299 15.6 4.93299 15.41L8.17299 13.06L11.413 15.41C11.673 15.6 11.983 15.7 12.293 15.7C12.603 15.7 12.913 15.6 13.173 15.41C13.703 15.03 13.923 14.35 13.713 13.73L12.473 9.92L15.673 7.59C16.073 7.32 16.333 6.87 16.333 6.35C16.333 5.52 15.663 4.85 14.833 4.85H10.823L9.58299 1.04C9.39299 0.42 8.82299 0 8.17299 0Z"
		fill="url(#paint1_linear_21_55)" />
	<g filter="url(#filter0_i_21_55)">
		<path
			d="M8.17299 1.5L9.74299 6.34H14.833L10.713 9.33L12.283 14.17L8.16299 11.18L4.04299 14.17L5.61299 9.33L1.50299 6.34H6.59299L8.16299 1.5M8.17299 0C7.52299 0 6.94299 0.42 6.74299 1.04L5.50299 4.85H1.50299C0.852987 4.85 0.272987 5.27 0.0729874 5.89C-0.127013 6.51 0.0929874 7.19 0.622987 7.57L3.86299 9.92L2.62299 13.73C2.42299 14.35 2.64299 15.03 3.17299 15.41C3.43299 15.6 3.74299 15.7 4.05299 15.7C4.36299 15.7 4.67299 15.6 4.93299 15.41L8.17299 13.06L11.413 15.41C11.673 15.6 11.983 15.7 12.293 15.7C12.603 15.7 12.913 15.6 13.173 15.41C13.703 15.03 13.923 14.35 13.713 13.73L12.473 9.92L15.673 7.59C16.073 7.32 16.333 6.87 16.333 6.35C16.333 5.52 15.663 4.85 14.833 4.85H10.823L9.58299 1.04C9.39299 0.42 8.82299 0 8.17299 0Z"
			fill="white" fill-opacity="0.01" />
	</g>
	<defs>
		<filter id="filter0_i_21_55" x="0" y="0" width="17.333" height="16.7"
			filterUnits="userSpaceOnUse" color-interpolation-filters="sRGB">
			<feFlood flood-opacity="0" result="BackgroundImageFix" />
			<feBlend mode="normal" in="SourceGraphic" in2="BackgroundImageFix" result="shape" />
			<feColorMatrix in="SourceAlpha" type="matrix"
				values="0 0 0 0 0 0 0 0 0 0 0 0 0 0 0 0 0 0 127 0" result="hardAlpha" />
			<feOffset dx="1" dy="1" />
			<feGaussianBlur stdDeviation="0.75" />
			<feComposite in2="hardAlpha" operator="arithmetic" k2="-1" k3="1" />
			<feColorMatrix type="matrix" values="0 0 0 0 0 0 0 0 0 0 0 0 0 0 0 0 0 0 0.15 0" />
			<feBlend mode="normal" in2="shape" result="effect1_innerShadow_21_55" />
		</filter>
		<radialGradient id="paint0_radial_21_55" cx="0" cy="0" r="1" gradientUnits="userSpaceOnUse"
			gradientTransform="translate(8 6) rotate(90) scale(7.5 7.86214)">
			<stop stop-color="#FFED77" />
			<stop offset="0.137564" stop-color="#FFEC77" />
			<stop offset="0.536808" stop-color="#FFDC3A" />
			<stop offset="1" stop-color="#FDD019" />
		</radialGradient>
		<linearGradient id="paint1_linear_21_55" x1="8.16066" y1="0.608527" x2="8.16066"
			y2="15.2132" gradientUnits="userSpaceOnUse">
			<stop stop-opacity="0" />
			<stop offset="0.5" stop-opacity="0" />
			<stop offset="1" stop-opacity="0.2" />
		</linearGradient>
	</defs>
</svg>