<svg width="11" height="11" viewBox="0 0 11 11" fill="none" xmlns="http://www.w3.org/2000/svg">
	<path
		d="M7.15243 5.5L11 1.65243L9.34757 0L5.5 3.84757L1.65243 0L0 1.65243L3.84757 5.5L0 9.34757L1.65243 11L5.5 7.15243L9.34757 11L11 9.34757L7.15243 5.5Z"
		fill="context-fill" />
	<path
		d="M7.15243 5.5L11 1.65243L9.34757 0L5.5 3.84757L1.65243 0L0 1.65243L3.84757 5.5L0 9.34757L1.65243 11L5.5 7.15243L9.34757 11L11 9.34757L7.15243 5.5Z"
		fill="url(#paint0_linear_29_115)" />
	<g filter="url(#filter0_i_29_115)">
		<path
			d="M7.15243 5.5L11 1.65243L9.34757 0L5.5 3.84757L1.65243 0L0 1.65243L3.84757 5.5L0 9.34757L1.65243 11L5.5 7.15243L9.34757 11L11 9.34757L7.15243 5.5Z"
			fill="white" fill-opacity="0.01" />
	</g>
	<defs>
		<filter id="filter0_i_29_115" x="0" y="0" width="12" height="12"
			filterUnits="userSpaceOnUse" color-interpolation-filters="sRGB">
			<feFlood flood-opacity="0" result="BackgroundImageFix" />
			<feBlend mode="normal" in="SourceGraphic" in2="BackgroundImageFix" result="shape" />
			<feColorMatrix in="SourceAlpha" type="matrix"
				values="0 0 0 0 0 0 0 0 0 0 0 0 0 0 0 0 0 0 127 0" result="hardAlpha" />
			<feOffset dx="1" dy="1" />
			<feGaussianBlur stdDeviation="0.75" />
			<feComposite in2="hardAlpha" operator="arithmetic" k2="-1" k3="1" />
			<feColorMatrix type="matrix" values="0 0 0 0 0 0 0 0 0 0 0 0 0 0 0 0 0 0 0.15 0" />
			<feBlend mode="normal" in2="shape" result="effect1_innerShadow_29_115" />
		</filter>
		<linearGradient id="paint0_linear_29_115" x1="5.49607" y1="0.426357" x2="5.49607"
			y2="10.6589" gradientUnits="userSpaceOnUse">
			<stop stop-opacity="0" />
			<stop offset="0.5" stop-opacity="0" />
			<stop offset="1" stop-opacity="0.2" />
		</linearGradient>
	</defs>
</svg>