<svg width="3" height="13" viewBox="0 0 3 13" fill="none" xmlns="http://www.w3.org/2000/svg">
<path d="M3 1.5C3 2.32843 2.32843 3 1.5 3C0.67157 3 0 2.32843 0 1.5C0 0.67157 0.67157 0 1.5 0C2.32843 0 3 0.67157 3 1.5Z" fill="context-fill"/>
<path d="M3 6.5C3 7.32843 2.32843 8 1.5 8C0.67157 8 0 7.32843 0 6.5C0 5.67157 0.67157 5 1.5 5C2.32843 5 3 5.67157 3 6.5Z" fill="context-fill"/>
<path d="M1.5 13C2.32843 13 3 12.3284 3 11.5C3 10.6716 2.32843 10 1.5 10C0.67157 10 0 10.6716 0 11.5C0 12.3284 0.67157 13 1.5 13Z" fill="context-fill"/>
</svg>
