<svg width="26" height="16" viewBox="0 0 26 16" fill="none" xmlns="http://www.w3.org/2000/svg">
	<g filter="url(#filter0_d_22_90)">
		<path
			d="M0.542511 4.32358C3.87331 4.8161 3.47238 4.53817 4.24171 4.16966C4.70946 3.75 5.01442 3.55401 4.50384 3.09228C4.02982 2.6636 3.93499 0 5.78544 0C7.63589 0 7.48168 2.78445 7.01907 3.09228C6.64898 3.33854 7.04308 3.79909 7.51597 4.21875C8.47549 4.73659 9.79474 4.37488 10.8742 4.16966V7.24792C10.8742 8.47922 11.491 8.37661 11.7994 8.17139C12.4162 7.40183 15 7.41585 15 9.41672C15 11.4176 12.3682 11.5715 11.9056 10.9558C11.443 10.3402 10.8742 10.8019 10.8742 11.5715C10.8742 12.3411 11.1826 13.7122 11.1826 14.3279C11.1826 14.8204 10.0501 15 8.91923 15C7.6856 15 6.27206 14.993 6.58047 14.5312C7.50569 14.2234 8.0985 11.5575 5.93964 11.5575C3.78079 11.5575 3.63004 13.2999 4.70946 14.5312C5.02402 14.8901 2.83846 15 2.83846 15C2.83846 15 0.96745 15 0.499697 14.6786C-0.610569 10.6154 0.388306 10.0696 1.00512 10.3262C1.82754 10.7879 3.47238 11.2496 3.47238 9.40269C3.47238 7.35432 1.88237 8.32531 0.850919 8.47922C0.0798994 8.47922 0.0798965 4.6314 0.542511 4.32358Z"
			fill="context-fill" />
		<path d="M19 6H26L22.5 9.5L19 6Z" fill="context-fill" />
		<path
			d="M0.542511 4.32358C3.87331 4.8161 3.47238 4.53817 4.24171 4.16966C4.70946 3.75 5.01442 3.55401 4.50384 3.09228C4.02982 2.6636 3.93499 0 5.78544 0C7.63589 0 7.48168 2.78445 7.01907 3.09228C6.64898 3.33854 7.04308 3.79909 7.51597 4.21875C8.47549 4.73659 9.79474 4.37488 10.8742 4.16966V7.24792C10.8742 8.47922 11.491 8.37661 11.7994 8.17139C12.4162 7.40183 15 7.41585 15 9.41672C15 11.4176 12.3682 11.5715 11.9056 10.9558C11.443 10.3402 10.8742 10.8019 10.8742 11.5715C10.8742 12.3411 11.1826 13.7122 11.1826 14.3279C11.1826 14.8204 10.0501 15 8.91923 15C7.6856 15 6.27206 14.993 6.58047 14.5312C7.50569 14.2234 8.0985 11.5575 5.93964 11.5575C3.78079 11.5575 3.63004 13.2999 4.70946 14.5312C5.02402 14.8901 2.83846 15 2.83846 15C2.83846 15 0.96745 15 0.499697 14.6786C-0.610569 10.6154 0.388306 10.0696 1.00512 10.3262C1.82754 10.7879 3.47238 11.2496 3.47238 9.40269C3.47238 7.35432 1.88237 8.32531 0.850919 8.47922C0.0798994 8.47922 0.0798965 4.6314 0.542511 4.32358Z"
			fill="url(#paint0_linear_22_90)" />
		<path d="M19 6H26L22.5 9.5L19 6Z" fill="url(#paint1_linear_22_90)" />
		<g filter="url(#filter1_i_22_90)">
			<path
				d="M0.542511 4.32358C3.87331 4.8161 3.47238 4.53817 4.24171 4.16966C4.70946 3.75 5.01442 3.55401 4.50384 3.09228C4.02982 2.6636 3.93499 0 5.78544 0C7.63589 0 7.48168 2.78445 7.01907 3.09228C6.64898 3.33854 7.04308 3.79909 7.51597 4.21875C8.47549 4.73659 9.79474 4.37488 10.8742 4.16966V7.24792C10.8742 8.47922 11.491 8.37661 11.7994 8.17139C12.4162 7.40183 15 7.41585 15 9.41672C15 11.4176 12.3682 11.5715 11.9056 10.9558C11.443 10.3402 10.8742 10.8019 10.8742 11.5715C10.8742 12.3411 11.1826 13.7122 11.1826 14.3279C11.1826 14.8204 10.0501 15 8.91923 15C7.6856 15 6.27206 14.993 6.58047 14.5312C7.50569 14.2234 8.0985 11.5575 5.93964 11.5575C3.78079 11.5575 3.63004 13.2999 4.70946 14.5312C5.02402 14.8901 2.83846 15 2.83846 15C2.83846 15 0.96745 15 0.499697 14.6786C-0.610569 10.6154 0.388306 10.0696 1.00512 10.3262C1.82754 10.7879 3.47238 11.2496 3.47238 9.40269C3.47238 7.35432 1.88237 8.32531 0.850919 8.47922C0.0798994 8.47922 0.0798965 4.6314 0.542511 4.32358Z"
				fill="white" fill-opacity="0.01" />
		</g>
		<g filter="url(#filter2_i_22_90)">
			<path d="M19 6H26L22.5 9.5L19 6Z" fill="white" fill-opacity="0.01" />
		</g>
	</g>
	<defs>
		<filter id="filter0_d_22_90" x="0" y="0" width="26" height="16" filterUnits="userSpaceOnUse"
			color-interpolation-filters="sRGB">
			<feFlood flood-opacity="0" result="BackgroundImageFix" />
			<feColorMatrix in="SourceAlpha" type="matrix"
				values="0 0 0 0 0 0 0 0 0 0 0 0 0 0 0 0 0 0 127 0" result="hardAlpha" />
			<feOffset dy="1" />
			<feComposite in2="hardAlpha" operator="out" />
			<feColorMatrix type="matrix" values="0 0 0 0 1 0 0 0 0 1 0 0 0 0 1 0 0 0 0.7 0" />
			<feBlend mode="normal" in2="BackgroundImageFix" result="effect1_dropShadow_22_90" />
			<feBlend mode="normal" in="SourceGraphic" in2="effect1_dropShadow_22_90" result="shape" />
		</filter>
		<filter id="filter1_i_22_90" x="0" y="0" width="16" height="16" filterUnits="userSpaceOnUse"
			color-interpolation-filters="sRGB">
			<feFlood flood-opacity="0" result="BackgroundImageFix" />
			<feBlend mode="normal" in="SourceGraphic" in2="BackgroundImageFix" result="shape" />
			<feColorMatrix in="SourceAlpha" type="matrix"
				values="0 0 0 0 0 0 0 0 0 0 0 0 0 0 0 0 0 0 127 0" result="hardAlpha" />
			<feOffset dx="1" dy="1" />
			<feGaussianBlur stdDeviation="0.75" />
			<feComposite in2="hardAlpha" operator="arithmetic" k2="-1" k3="1" />
			<feColorMatrix type="matrix" values="0 0 0 0 0 0 0 0 0 0 0 0 0 0 0 0 0 0 0.15 0" />
			<feBlend mode="normal" in2="shape" result="effect1_innerShadow_22_90" />
		</filter>
		<filter id="filter2_i_22_90" x="19" y="6" width="8" height="4.5"
			filterUnits="userSpaceOnUse" color-interpolation-filters="sRGB">
			<feFlood flood-opacity="0" result="BackgroundImageFix" />
			<feBlend mode="normal" in="SourceGraphic" in2="BackgroundImageFix" result="shape" />
			<feColorMatrix in="SourceAlpha" type="matrix"
				values="0 0 0 0 0 0 0 0 0 0 0 0 0 0 0 0 0 0 127 0" result="hardAlpha" />
			<feOffset dx="1" dy="1" />
			<feGaussianBlur stdDeviation="0.75" />
			<feComposite in2="hardAlpha" operator="arithmetic" k2="-1" k3="1" />
			<feColorMatrix type="matrix" values="0 0 0 0 0 0 0 0 0 0 0 0 0 0 0 0 0 0 0.15 0" />
			<feBlend mode="normal" in2="shape" result="effect1_innerShadow_22_90" />
		</filter>
		<linearGradient id="paint0_linear_22_90" x1="7.49464" y1="0.581395" x2="7.49464"
			y2="14.5349" gradientUnits="userSpaceOnUse">
			<stop stop-opacity="0" />
			<stop offset="0.5" stop-opacity="0" />
			<stop offset="1" stop-opacity="0.2" />
		</linearGradient>
		<linearGradient id="paint1_linear_22_90" x1="22.4975" y1="-3.18475e-07" x2="22.4975" y2="15"
			gradientUnits="userSpaceOnUse">
			<stop stop-opacity="0" />
			<stop offset="0.5" stop-opacity="0" />
			<stop offset="1" stop-opacity="0.2" />
		</linearGradient>
	</defs>
</svg>