<svg width="28" height="19" viewBox="0 0 28 19" fill="none" xmlns="http://www.w3.org/2000/svg">
<path d="M1.54251 6.32358C4.87331 6.8161 4.47238 6.53817 5.24171 6.16966C5.70946 5.75 6.01442 5.55401 5.50384 5.09228C5.02982 4.6636 4.93499 2 6.78544 2C8.63589 2 8.48168 4.78445 8.01907 5.09228C7.64898 5.33854 8.04308 5.79909 8.51597 6.21875C9.47549 6.73659 10.7947 6.37488 11.8742 6.16966V9.24792C11.8742 10.4792 12.491 10.3766 12.7994 10.1714C13.4162 9.40183 16 9.41585 16 11.4167C16 13.4176 13.3682 13.5715 12.9056 12.9558C12.443 12.3402 11.8742 12.8019 11.8742 13.5715C11.8742 14.3411 12.1826 15.7122 12.1826 16.3279C12.1826 16.8204 11.0501 17 9.91923 17C8.6856 17 7.27206 16.993 7.58047 16.5312C8.50569 16.2234 9.0985 13.5575 6.93964 13.5575C4.78079 13.5575 4.63004 15.2999 5.70946 16.5312C6.02402 16.8901 3.83846 17 3.83846 17C3.83846 17 1.96745 17 1.4997 16.6786C0.389431 12.6154 1.38831 12.0696 2.00512 12.3262C2.82754 12.7879 4.47238 13.2496 4.47238 11.4027C4.47238 9.35432 2.88237 10.3253 1.85092 10.4792C1.0799 10.4792 1.0799 6.6314 1.54251 6.32358Z" fill="url(#paint0_linear_4_19)"/>
<path d="M27.0341 9H20.0341V10H21.0341V11H22.0341V12H23.0341V13H24.0341V12H25.0341V11H26.0341V10H27.0341V9Z" fill="url(#paint1_linear_4_19)"/>
<defs>
<linearGradient id="paint0_linear_4_19" x1="8.04822" y1="2.9375" x2="8.04822" y2="17" gradientUnits="userSpaceOnUse">
<stop stop-color="#536EA1"/>
<stop offset="1" stop-color="#3B5687"/>
</linearGradient>
<linearGradient id="paint1_linear_4_19" x1="23.5341" y1="9" x2="23.5341" y2="13" gradientUnits="userSpaceOnUse">
<stop stop-color="#4E6590"/>
<stop offset="1" stop-color="#3C578A"/>
</linearGradient>
</defs>
</svg>
