<svg width="16" height="16" viewBox="0 0 16 16" fill="none" xmlns="http://www.w3.org/2000/svg">
<path d="M13.856 8.792L13.848 8.808C13.88 8.544 13.912 8.272 13.912 8C13.912 7.728 13.888 7.472 13.856 7.208L13.864 7.224L15.816 5.688L13.872 2.312L11.576 3.24L11.584 3.248C11.168 2.928 10.712 2.656 10.216 2.448H10.224L9.856 0H5.96L5.608 2.456H5.616C5.12 2.664 4.664 2.936 4.248 3.256L4.256 3.248L1.952 2.312L0 5.688L1.952 7.224L1.96 7.208C1.928 7.472 1.904 7.728 1.904 8C1.904 8.272 1.928 8.544 1.968 8.808L1.96 8.792L0.28 10.112L0.0160002 10.32L1.96 13.68L4.264 12.76L4.248 12.728C4.672 13.056 5.128 13.328 5.632 13.536H5.608L5.968 16H9.848C9.848 16 9.872 15.856 9.896 15.664L10.2 13.544H10.192C10.688 13.336 11.152 13.064 11.576 12.736L11.56 12.768L13.864 13.688L15.808 10.328C15.808 10.328 15.696 10.232 15.544 10.12L13.856 8.792ZM7.904 10.8C6.36 10.8 5.104 9.544 5.104 8C5.104 6.456 6.36 5.2 7.904 5.2C9.448 5.2 10.704 6.456 10.704 8C10.704 9.544 9.448 10.8 7.904 10.8Z" fill="#5A5A5A"/>
</svg>
