<svg width="12" height="10" viewBox="0 0 12 10" fill="none" xmlns="http://www.w3.org/2000/svg">
<path fill-rule="evenodd" clip-rule="evenodd" d="M3.56066 1L6.5 3.93934L9.43934 1H10.5L11 1.49999V1.56066L7.56066 5L11 8.43934V8.50001L10.5 9H9.43934L6.5 6.06066L3.56066 9H2.49999L2 8.50001V8.43934L5.43934 5L2 1.56066V1.49999L2.49999 1H3.56066Z" fill="white"/>
<path fill-rule="evenodd" clip-rule="evenodd" d="M9.43934 9L6.5 6.06066L3.56066 9H2.49999L2 8.50001V8.43934L5.43934 5L2 1.56066V1.49999L2.49999 1H3.56066L6.5 3.93934L9.43934 1H10.5L11 1.49999V1.56066L7.56066 5L11 8.43934V8.50001L10.5 9H9.43934ZM8.97487 5L12 8.02513V8.91422L10.9142 10H9.02513L6.5 7.47487L3.97487 10H2.08578L1 8.91422V8.02513L4.02513 5L1 1.97487V1.08578L2.08578 0H3.97487L6.5 2.52513L9.02513 0H10.9142L12 1.08578V1.97487L8.97487 5Z" fill="black" fill-opacity="0.22"/>
</svg>
