<svg width="12" height="10" viewBox="0 0 12 10" fill="none" xmlns="http://www.w3.org/2000/svg">
<path fill-rule="evenodd" clip-rule="evenodd" d="M2.5 1C1.67157 1 1 1.67157 1 2.5V7.5C1 8.32843 1.67157 9 2.5 9H9.5C10.3284 9 11 8.32843 11 7.5V2.5C11 1.67157 10.3284 1 9.5 1H2.5ZM3.5 3C2.67157 3 2 3.67157 2 4.5V6.5C2 7.32843 2.67157 8 3.5 8H8.5C9.32843 8 10 7.32843 10 6.5V4.5C10 3.67157 9.32843 3 8.5 3H3.5Z" fill="white" fill-opacity="0.8"/>
<path fill-rule="evenodd" clip-rule="evenodd" d="M0 2.5C0 1.11929 1.11929 0 2.5 0H9.5C10.8807 0 12 1.11929 12 2.5V7.5C12 8.88071 10.8807 10 9.5 10H2.5C1.11929 10 0 8.88071 0 7.5V2.5ZM11 2.5C11 1.67157 10.3284 1 9.5 1H2.5C1.67157 1 1 1.67157 1 2.5V7.5C1 8.32843 1.67157 9 2.5 9H9.5C10.3284 9 11 8.32843 11 7.5V2.5ZM3.5 4C3.22386 4 3 4.22386 3 4.5V6.5C3 6.77614 3.22386 7 3.5 7H8.5C8.77614 7 9 6.77614 9 6.5V4.5C9 4.22386 8.77614 4 8.5 4H3.5ZM2 4.5C2 3.67157 2.67157 3 3.5 3H8.5C9.32843 3 10 3.67157 10 4.5V6.5C10 7.32843 9.32843 8 8.5 8H3.5C2.67157 8 2 7.32843 2 6.5V4.5Z" fill="black" fill-opacity="0.22"/>
</svg>
