<svg width="12" height="10" viewBox="0 0 12 10" fill="none" xmlns="http://www.w3.org/2000/svg">
<path d="M1 7C1 6.44772 1.44772 6 2 6H10C10.5523 6 11 6.44772 11 7C11 7.55228 10.5523 8 10 8H2C1.44772 8 1 7.55228 1 7Z" fill="white" fill-opacity="0.8"/>
<path fill-rule="evenodd" clip-rule="evenodd" d="M2 5H10C11.1046 5 12 5.89543 12 7C12 8.10457 11.1046 9 10 9H2C0.89543 9 0 8.10457 0 7C0 5.89543 0.895431 5 2 5ZM2 6C1.44772 6 1 6.44772 1 7C1 7.55228 1.44772 8 2 8H10C10.5523 8 11 7.55228 11 7C11 6.44772 10.5523 6 10 6H2Z" fill="black" fill-opacity="0.22"/>
</svg>
