<svg width="12" height="10" viewBox="0 0 12 10" fill="none" xmlns="http://www.w3.org/2000/svg">
<path fill-rule="evenodd" clip-rule="evenodd" d="M4 2C4 1.44772 4.44769 1 5 1H10C10.5523 1 11 1.44772 11 2V6C11 6.55228 10.5523 7 10 7H8V8C8 8.55228 7.55231 9 7 9H2C1.44769 9 1 8.55228 1 8V4C1 3.44772 1.44769 3 2 3H4V2ZM5 4H4H2.5C2.22388 4 2 4.22385 2 4.5V7.5C2 7.77615 2.22388 8 2.5 8H6.5C6.77612 8 7 7.77615 7 7.5V7V6V4.5C7 4.22385 6.77612 4 6.5 4H5ZM8 6V4C8 3.44772 7.55231 3 7 3H5V2.5C5 2.22385 5.22388 2 5.5 2H9.5C9.77612 2 10 2.22385 10 2.5V5.5C10 5.77615 9.77612 6 9.5 6H8Z" fill="white" fill-opacity="0.8"/>
<path fill-rule="evenodd" clip-rule="evenodd" d="M3 2C3 0.895458 3.89539 0 5 0H10C11.1046 0 12 0.895458 12 2V6C12 7.10454 11.1046 8 10 8H9C9 9.10454 8.10461 10 7 10H2C0.895388 10 0 9.10454 0 8V4C0 2.89546 0.895388 2 2 2H3ZM3 5V7H6V5H3ZM8.73244 3C8.90261 3.29418 9 3.63572 9 4V3H8.73244ZM5 1C4.44769 1 4 1.44772 4 2V3H2C1.44769 3 1 3.44772 1 4V8C1 8.55228 1.44769 9 2 9H7C7.55231 9 8 8.55228 8 8V7H10C10.5523 7 11 6.55228 11 6V2C11 1.44772 10.5523 1 10 1H5ZM6.5 4C6.77612 4 7 4.22385 7 4.5V7.5C7 7.77615 6.77612 8 6.5 8H2.5C2.22388 8 2 7.77615 2 7.5V4.5C2 4.22385 2.22388 4 2.5 4H6.5ZM8 6H9.5C9.77612 6 10 5.77615 10 5.5V2.5C10 2.22385 9.77612 2 9.5 2H5.5C5.22388 2 5 2.22385 5 2.5V3H7C7.55231 3 8 3.44772 8 4V6Z" fill="black" fill-opacity="0.22"/>
<path fill-rule="evenodd" clip-rule="evenodd" d="M4 5H5V6H6V7H4V5Z" fill="white" fill-opacity="0.25"/>
</svg>
