<svg width="11" height="10" viewBox="0 0 11 10" fill="none" xmlns="http://www.w3.org/2000/svg">
<path fill-rule="evenodd" clip-rule="evenodd" d="M4 0H1V1H0V2H1V3H2V4H3V6H2V7H1V8H0V9H1V10H4V9H5V8H6V9H7V10H10V9H11V8H10V7H9V6H8V4H9V3H10V2H11V1H10V0H7V1H6V2H5V1H4V0ZM4 1V2H5V3H6V2H7V1H10V2H9V3H8V4H7V6H8V7H9V8H10V9H7V8H6V7H5V8H4V9H1V8H2V7H3V6H4V4H3V3H2V2H1V1H4Z" fill="black" fill-opacity="0.6"/>
<path d="M10 2H9V3H8V4H7V6H8V7H9V8H10V9H7V8H6V7H5V8H4V9H1V8H2V7H3V6H4V4H3V3H2V2H1V1H4V2H5V3H6V2H7V1H10V2Z" fill="white" fill-opacity="0.6"/>
</svg>
