<svg width="38" height="31" viewBox="0 0 38 31" fill="none" xmlns="http://www.w3.org/2000/svg">
	<mask id="mask0_33_133" style="mask-type:alpha" maskUnits="userSpaceOnUse" x="0" y="0"
		width="38" height="31">
		<rect width="38" height="31" fill="white" />
	</mask>
	<g mask="url(#mask0_33_133)">
		<g filter="url(#filter0_d_33_133)">
			<path
				d="M31.38 24.87L36.26 17.25L31.74 17.37C32.94 16.26 33.25 14.9 33.22 13.63C33.18 11.82 30.89 10.58 28.21 9.76999C28.2 7.92999 28.19 5.79999 28.22 4.56999C28.26 3.06999 27.66 2.87999 25.79 3.06999C23.92 3.25999 22.5 3.98999 19.23 4.06999C16.7 4.12999 15.11 3.50999 13.67 4.68999C13.33 4.96999 13.28 7.25999 13.32 9.23999C10.58 9.82999 8.13001 10.87 7.97001 12.75C7.79001 14.85 9.76001 16.63 12.69 17.87L5.13001 18.07L12.16 26.32L7.96001 23.4C7.96001 23.4 6.26001 24.63 5.20001 27C4.14001 29.37 4.01001 31.25 4.01001 31.25H34.2C34.2 31.25 33.51 28.69 33.14 27.37C32.77 26.05 31.39 24.87 31.39 24.87H31.38ZM13.33 12.92C13.33 12.92 17.42 14.22 20.76 14.26C24.1 14.3 28.22 12.5 28.22 12.5V13.24C28.22 13.24 25.27 15.74 20.74 15.74C16.21 15.74 13.29 13.28 13.29 13.28L13.32 12.92H13.33ZM19.69 23.28C16.77 22.9 16.34 19.8 16.28 19C18.64 19.54 21.25 19.8 23.76 19.7C23.79 21.1 22.38 23.63 19.69 23.28ZM27.98 22.39C26.35 22.69 25.05 20.97 24.32 19.68C27.07 19.51 28.99 19.02 30.34 18.33C30.05 19.74 29.35 22.15 27.99 22.39H27.98Z"
				fill="url(#paint0_linear_33_133)" />
		</g>
	</g>
	<defs>
		<filter id="filter0_d_33_133" x="1.01001" y="0.0090332" width="38.25" height="34.241"
			filterUnits="userSpaceOnUse" color-interpolation-filters="sRGB">
			<feFlood flood-opacity="0" result="BackgroundImageFix" />
			<feColorMatrix in="SourceAlpha" type="matrix"
				values="0 0 0 0 0 0 0 0 0 0 0 0 0 0 0 0 0 0 127 0" result="hardAlpha" />
			<feOffset />
			<feGaussianBlur stdDeviation="1.5" />
			<feComposite in2="hardAlpha" operator="out" />
			<feColorMatrix type="matrix" values="0 0 0 0 0 0 0 0 0 0 0 0 0 0 0 0 0 0 0.9 0" />
			<feBlend mode="normal" in2="BackgroundImageFix" result="effect1_dropShadow_33_133" />
			<feBlend mode="normal" in="SourceGraphic" in2="effect1_dropShadow_33_133" result="shape" />
		</filter>
		<linearGradient id="paint0_linear_33_133" x1="20.135" y1="3.00903" x2="20.135" y2="31.25"
			gradientUnits="userSpaceOnUse">
			<stop stop-color="#FDFEFF" />
			<stop offset="1" stop-color="#EAF2FB" />
		</linearGradient>
	</defs>
</svg>