<svg width="13" height="13" viewBox="0 0 13 13" fill="none" xmlns="http://www.w3.org/2000/svg">
<mask id="mask0_30_103" style="mask-type:alpha" maskUnits="userSpaceOnUse" x="3" y="0" width="10" height="10">
<path fill-rule="evenodd" clip-rule="evenodd" d="M3 0H13V3V10H10V3H3V0ZM6 7H4V9H6V7Z" fill="#D9D9D9"/>
</mask>
<g mask="url(#mask0_30_103)">
<mask id="mask1_30_103" style="mask-type:alpha" maskUnits="userSpaceOnUse" x="3" y="0" width="10" height="10">
<path d="M4 0H12L13 1V9L12 10H4L3 9V1L4 0Z" fill="#D9D9D9"/>
</mask>
<g mask="url(#mask1_30_103)">
<path fill-rule="evenodd" clip-rule="evenodd" d="M13 0H3V10H13V0Z" fill="white" fill-opacity="0.6"/>
<path d="M3.5 0.5H12.5V9.5H3.5V0.5Z" stroke="black" stroke-opacity="0.6"/>
</g>
</g>
<mask id="mask2_30_103" style="mask-type:alpha" maskUnits="userSpaceOnUse" x="0" y="3" width="10" height="10">
<path d="M1 3H10V12L9 13H1L0 12V4L1 3Z" fill="#D9D9D9"/>
</mask>
<g mask="url(#mask2_30_103)">
<path fill-rule="evenodd" clip-rule="evenodd" d="M10 3H0V13H10V3ZM6 7H4V9H6V7Z" fill="white" fill-opacity="0.6"/>
<path d="M4 6.5H3.5V7V9V9.5H4H6H6.5V9V7V6.5H6H4ZM0.5 3.5H9.5V12.5H0.5V3.5Z" stroke="black" stroke-opacity="0.6"/>
</g>
</svg>
