<svg width="34" height="17" viewBox="0 0 34 17" fill="none" xmlns="http://www.w3.org/2000/svg">
<path d="M7.36948 15.6988L1.30282 1.6988C1.15975 1.36865 1.40177 1 1.76159 1H25.6816C25.8758 1 26.0525 1.11252 26.1347 1.28856L32.668 15.2886C32.8227 15.62 32.5807 16 32.2149 16H7.82826C7.62898 16 7.44872 15.8817 7.36948 15.6988Z" fill="black" fill-opacity="0.06"/>
<path d="M7.36948 15.6988L1.30282 1.6988C1.15975 1.36865 1.40177 1 1.76159 1H25.6816C25.8758 1 26.0525 1.11252 26.1347 1.28856L32.668 15.2886C32.8227 15.62 32.5807 16 32.2149 16H7.82826C7.62898 16 7.44872 15.8817 7.36948 15.6988Z" fill="url(#paint0_linear_182_143)" fill-opacity="0.2"/>
<path fill-rule="evenodd" clip-rule="evenodd" d="M26.1381 1.28693L27.0408 0.865673L33.5742 14.8657C34.0383 15.8601 33.3123 17 32.2149 17H7.82825C7.2304 17 6.68963 16.645 6.45192 16.0964L7.36948 15.6988C7.44871 15.8817 7.62897 16 7.82825 16H32.2149C32.5807 16 32.8227 15.62 32.668 15.2886L26.1347 1.28856C26.0525 1.11252 25.8758 1 25.6816 1H1.76159C1.40176 1 1.15974 1.36865 1.30281 1.6988L7.36948 15.6988L6.45192 16.0964L0.385253 2.09641C-0.0439495 1.10594 0.68212 0 1.76159 0H25.6816C26.2644 0 26.7944 0.337565 27.0408 0.86567L26.1381 1.28693Z" fill="black" fill-opacity="0.3"/>
<path d="M7.36948 15.6988L1.30281 1.6988C1.15975 1.36865 1.40177 1 1.76159 1H25.6816C25.8758 1 26.0525 1.11252 26.1347 1.28856L32.668 15.2886C32.8227 15.62 32.5807 16 32.2149 16H7.82826C7.62897 16 7.44872 15.8817 7.36948 15.6988Z" fill="url(#paint1_linear_182_143)" fill-opacity="0.2"/>
<defs>
<linearGradient id="paint0_linear_182_143" x1="17" y1="1" x2="17" y2="16" gradientUnits="userSpaceOnUse">
<stop/>
<stop offset="0.09" stop-opacity="0"/>
</linearGradient>
<linearGradient id="paint1_linear_182_143" x1="17" y1="1" x2="17" y2="16" gradientUnits="userSpaceOnUse">
<stop stop-opacity="0.04"/>
<stop offset="0.09" stop-opacity="0"/>
</linearGradient>
</defs>
</svg>
