<svg width="34" height="17" viewBox="0 0 34 17" fill="none" xmlns="http://www.w3.org/2000/svg">
<path fill-rule="evenodd" clip-rule="evenodd" d="M26.1381 1.28693L27.0408 0.865673L33.5742 14.8657C34.0383 15.8601 33.3123 17 32.2149 17H7.82825C7.2304 17 6.68963 16.645 6.45192 16.0964L7.36948 15.6988C7.44871 15.8817 7.62897 16 7.82825 16H32.2149C32.5807 16 32.8227 15.62 32.668 15.2886L26.1347 1.28856C26.0525 1.11252 25.8758 1 25.6816 1H1.76159C1.40176 1 1.15974 1.36865 1.30281 1.6988L7.36948 15.6988L6.45192 16.0964L0.385253 2.09641C-0.0439495 1.10594 0.68212 0 1.76159 0H25.6816C26.2644 0 26.7944 0.337565 27.0408 0.86567L26.1381 1.28693Z" fill="black" fill-opacity="0.2"/>
</svg>
