<svg version="1.1" viewBox="0 0 512 512" xmlns="http://www.w3.org/2000/svg" xmlns:xlink="http://www.w3.org/1999/xlink" fill="context-fill">
    <defs>
        <linearGradient id="linearGradient4906">
            <stop stop-opacity="0" offset="0"/>
            <stop stop-color="#25556c" stop-opacity=".16141272" offset="1"/>
        </linearGradient>
        <linearGradient id="linearGradient1039" x1="256.84714" x2="256.84714" y1="340.87582" y2="172.87582" gradientTransform="translate(-104.65754 -.87582397)" gradientUnits="userSpaceOnUse">
            <stop stop-color="#0b5994" offset="0"/>
            <stop stop-color="#80b4e0" offset="1"/>
        </linearGradient>
        <linearGradient id="linearGradient1051" x1="257" x2="257" y1="357" y2="157" gradientTransform="matrix(11.104428,0,0,1,-2721.3109,-1.1679687)" gradientUnits="userSpaceOnUse">
            <stop stop-color="#ddd" offset="0"/>
            <stop stop-color="#f0f0f0" offset="1"/>
        </linearGradient>
        <radialGradient id="radialGradient1128" cx="259.99997" cy="-35.030567" r="194.03225" gradientTransform="matrix(1.2884455 6.7623971e-8 -7.7385588e-8 .72152951 -94.806207 55.275571)" gradientUnits="userSpaceOnUse">
            <stop stop-color="#4bb0e9" offset="0"/>
            <stop stop-color="#2a83c8" offset="1"/>
        </radialGradient>
        <linearGradient id="linearGradient1272" x1="70" x2="70" y1="130" y2="480" gradientTransform="translate(-19.810399)" gradientUnits="userSpaceOnUse">
            <stop stop-color="#e26f0f" offset="0"/>
            <stop stop-color="#e26f0f" offset=".40000001"/>
            <stop stop-color="#c9430e" offset="1"/>
        </linearGradient>
        <radialGradient id="radialGradient908" cx="267.6322" cy="-114.11633" r="31.579161" gradientTransform="matrix(1 0 0 .3674577 -26.519227 -58.664527)" gradientUnits="userSpaceOnUse">
            <stop stop-color="#1a1a1a" stop-opacity=".69999999" offset="0"/>
            <stop stop-color="#1a1a1a" stop-opacity=".16" offset="1"/>
        </radialGradient>
        <filter id="filter1424" x="-.15958866" y="-.18951155" width="1.3191773" height="1.3790231" color-interpolation-filters="sRGB">
            <feGaussianBlur stdDeviation="2.5271796"/>
        </filter>
        <filter id="filter1847" x="-.062701986" y="-.076165017" width="1.125404" height="1.15233" color-interpolation-filters="sRGB">
            <feGaussianBlur stdDeviation="1.9307606"/>
        </filter>
        <radialGradient id="radialGradient1878" cx="206.47935" cy="146.05966" r="41.937883" gradientTransform="matrix(1.0921178 .19605914 -.19116525 1.0381513 -26.754399 -53.797139)" gradientUnits="userSpaceOnUse">
            <stop stop-color="#485a37" stop-opacity="0" offset="0"/>
            <stop stop-color="#485a37" stop-opacity="0" offset=".68000001"/>
            <stop stop-color="#51653e" stop-opacity=".16470589" offset=".76300234"/>
            <stop stop-color="#51653e" offset="1"/>
        </radialGradient>
        <radialGradient id="radialGradient1878-5" cx="225.64424" cy="168.35207" r="41.937881" gradientTransform="matrix(1.8028785 -.39449642 .25215315 1.2178438 -255.45646 50.612518)" gradientUnits="userSpaceOnUse">
            <stop stop-color="#fefefd" stop-opacity="0" offset="0"/>
            <stop stop-color="#fff" stop-opacity="0" offset=".69999999"/>
            <stop stop-color="#fff" stop-opacity=".22052088" offset=".81999999"/>
            <stop stop-color="#fff" stop-opacity=".6381641" offset="1"/>
        </radialGradient>
        <filter id="filter3171" x="-.69312" y="-.69312" width="2.38624" height="2.38624" color-interpolation-filters="sRGB">
            <feGaussianBlur stdDeviation="1.1552"/>
        </filter>
        <filter id="filter3171-0" x="-.69312" y="-.69312" width="2.38624" height="2.38624" color-interpolation-filters="sRGB">
            <feGaussianBlur stdDeviation="1.1552"/>
        </filter>
        <filter id="filter3171-6" x="-.69312" y="-.69312" width="2.38624" height="2.38624" color-interpolation-filters="sRGB">
            <feGaussianBlur stdDeviation="1.1552"/>
        </filter>
        <filter id="filter3171-2" x="-.69312" y="-.69312" width="2.38624" height="2.38624" color-interpolation-filters="sRGB">
            <feGaussianBlur stdDeviation="1.1552"/>
        </filter>
        <filter id="filter3171-8" x="-.69312" y="-.69312" width="2.38624" height="2.38624" color-interpolation-filters="sRGB">
            <feGaussianBlur stdDeviation="1.1552"/>
        </filter>
        <filter id="filter3171-20" x="-.69312" y="-.69312" width="2.38624" height="2.38624" color-interpolation-filters="sRGB">
            <feGaussianBlur stdDeviation="1.1552"/>
        </filter>
        <filter id="filter3171-5" x="-.69312" y="-.69312" width="2.38624" height="2.38624" color-interpolation-filters="sRGB">
            <feGaussianBlur stdDeviation="1.1552"/>
        </filter>
        <filter id="filter3171-89" x="-.69312" y="-.69312" width="2.38624" height="2.38624" color-interpolation-filters="sRGB">
            <feGaussianBlur stdDeviation="1.1552"/>
        </filter>
        <filter id="filter3171-6-2" x="-.69312" y="-.69312" width="2.38624" height="2.38624" color-interpolation-filters="sRGB">
            <feGaussianBlur stdDeviation="1.1552"/>
        </filter>
        <filter id="filter3171-6-2-1" x="-.69312" y="-.69312" width="2.38624" height="2.38624" color-interpolation-filters="sRGB">
            <feGaussianBlur stdDeviation="1.1552"/>
        </filter>
        <filter id="filter3171-20-7" x="-.69312" y="-.69312" width="2.38624" height="2.38624" color-interpolation-filters="sRGB">
            <feGaussianBlur stdDeviation="1.1552"/>
        </filter>
        <filter id="filter3171-20-7-5" x="-.69312" y="-.69312" width="2.38624" height="2.38624" color-interpolation-filters="sRGB">
            <feGaussianBlur stdDeviation="1.1552"/>
        </filter>
        <filter id="filter3171-20-7-5-6" x="-.69312" y="-.69312" width="2.38624" height="2.38624" color-interpolation-filters="sRGB">
            <feGaussianBlur stdDeviation="1.1552"/>
        </filter>
        <filter id="filter3171-20-7-5-6-6" x="-.69312" y="-.69312" width="2.38624" height="2.38624" color-interpolation-filters="sRGB">
            <feGaussianBlur stdDeviation="1.1552"/>
        </filter>
        <filter id="filter3171-20-7-5-6-0" x="-.69312" y="-.69312" width="2.38624" height="2.38624" color-interpolation-filters="sRGB">
            <feGaussianBlur stdDeviation="1.1552"/>
        </filter>
        <filter id="filter3171-6-5" x="-.69312" y="-.69312" width="2.38624" height="2.38624" color-interpolation-filters="sRGB">
            <feGaussianBlur stdDeviation="1.1552"/>
        </filter>
        <filter id="filter3171-6-5-7" x="-.69312" y="-.69312" width="2.38624" height="2.38624" color-interpolation-filters="sRGB">
            <feGaussianBlur stdDeviation="1.1552"/>
        </filter>
        <filter id="filter3171-6-5-6" x="-.69312" y="-.69312" width="2.38624" height="2.38624" color-interpolation-filters="sRGB">
            <feGaussianBlur stdDeviation="1.1552"/>
        </filter>
        <filter id="filter3171-6-5-74" x="-.69312" y="-.69312" width="2.38624" height="2.38624" color-interpolation-filters="sRGB">
            <feGaussianBlur stdDeviation="1.1552"/>
        </filter>
        <filter id="filter3171-89-5" x="-.69312" y="-.69312" width="2.38624" height="2.38624" color-interpolation-filters="sRGB">
            <feGaussianBlur stdDeviation="1.1552"/>
        </filter>
        <filter id="filter3171-89-4" x="-.69312" y="-.69312" width="2.38624" height="2.38624" color-interpolation-filters="sRGB">
            <feGaussianBlur stdDeviation="1.1552"/>
        </filter>
        <filter id="filter3171-89-7" x="-.69312" y="-.69312" width="2.38624" height="2.38624" color-interpolation-filters="sRGB">
            <feGaussianBlur stdDeviation="1.1552"/>
        </filter>
        <filter id="filter3171-89-8" x="-.69312" y="-.69312" width="2.38624" height="2.38624" color-interpolation-filters="sRGB">
            <feGaussianBlur stdDeviation="1.1552"/>
        </filter>
        <filter id="filter3171-89-1" x="-.69312" y="-.69312" width="2.38624" height="2.38624" color-interpolation-filters="sRGB">
            <feGaussianBlur stdDeviation="1.1552"/>
        </filter>
        <filter id="filter3171-89-0" x="-.69312" y="-.69312" width="2.38624" height="2.38624" color-interpolation-filters="sRGB">
            <feGaussianBlur stdDeviation="1.1552"/>
        </filter>
        <filter id="filter3171-89-9" x="-.69312" y="-.69312" width="2.38624" height="2.38624" color-interpolation-filters="sRGB">
            <feGaussianBlur stdDeviation="1.1552"/>
        </filter>
        <filter id="filter3171-6-8" x="-.69312" y="-.69312" width="2.38624" height="2.38624" color-interpolation-filters="sRGB">
            <feGaussianBlur stdDeviation="1.1552"/>
        </filter>
        <filter id="filter3171-6-7" x="-.69312" y="-.69312" width="2.38624" height="2.38624" color-interpolation-filters="sRGB">
            <feGaussianBlur stdDeviation="1.1552"/>
        </filter>
        <filter id="filter3171-6-22" x="-.69312" y="-.69312" width="2.38624" height="2.38624" color-interpolation-filters="sRGB">
            <feGaussianBlur stdDeviation="1.1552"/>
        </filter>
        <filter id="filter3171-6-22-6" x="-.69312" y="-.69312" width="2.38624" height="2.38624" color-interpolation-filters="sRGB">
            <feGaussianBlur stdDeviation="1.1552"/>
        </filter>
        <filter id="filter3171-6-7-9" x="-.69312" y="-.69312" width="2.38624" height="2.38624" color-interpolation-filters="sRGB">
            <feGaussianBlur stdDeviation="1.1552"/>
        </filter>
        <filter id="filter3171-6-7-0" x="-.69312" y="-.69312" width="2.38624" height="2.38624" color-interpolation-filters="sRGB">
            <feGaussianBlur stdDeviation="1.1552"/>
        </filter>
        <filter id="filter3171-6-7-7" x="-.69312" y="-.69312" width="2.38624" height="2.38624" color-interpolation-filters="sRGB">
            <feGaussianBlur stdDeviation="1.1552"/>
        </filter>
        <filter id="filter3171-6-7-5" x="-.69312" y="-.69312" width="2.38624" height="2.38624" color-interpolation-filters="sRGB">
            <feGaussianBlur stdDeviation="1.1552"/>
        </filter>
        <filter id="filter3171-6-22-67" x="-.69312" y="-.69312" width="2.38624" height="2.38624" color-interpolation-filters="sRGB">
            <feGaussianBlur stdDeviation="1.1552"/>
        </filter>
        <filter id="filter3171-20-7-5-6-5" x="-.69312" y="-.69312" width="2.38624" height="2.38624" color-interpolation-filters="sRGB">
            <feGaussianBlur stdDeviation="1.1552"/>
        </filter>
        <filter id="filter3171-20-7-5-6-4" x="-.69312" y="-.69312" width="2.38624" height="2.38624" color-interpolation-filters="sRGB">
            <feGaussianBlur stdDeviation="1.1552"/>
        </filter>
        <filter id="filter3171-8-9" x="-.69312" y="-.69312" width="2.38624" height="2.38624" color-interpolation-filters="sRGB">
            <feGaussianBlur stdDeviation="1.1552"/>
        </filter>
        <filter id="filter3885" x="-.29034043" y="-.62351175" width="1.5806809" height="2.2470235" color-interpolation-filters="sRGB">
            <feGaussianBlur stdDeviation="6.3234156"/>
        </filter>
        <linearGradient id="linearGradient3897" x1="253.63542" x2="266.73456" y1="116.27155" y2="179.93796" gradientTransform="translate(-124.95737,15.500087)" gradientUnits="userSpaceOnUse">
            <stop stop-color="#454020" offset="0"/>
            <stop stop-opacity=".22453527" offset="1"/>
        </linearGradient>
        <linearGradient id="linearGradient3907" x1="245.04352" x2="301.3844" y1="120.96603" y2="152.0437" gradientTransform="translate(-131.19865,12.134268)" gradientUnits="userSpaceOnUse">
            <stop stop-color="#514d00" stop-opacity=".28000003" offset="0"/>
            <stop stop-color="#fff866" stop-opacity=".38" offset="1"/>
        </linearGradient>
        <linearGradient id="linearGradient3954" x1="348.6597" x2="287.87878" y1="200.85486" y2="183.33592" gradientTransform="matrix(.99915627 .04106992 -.04164966 .99913228 -139.51729 -9.999997)" gradientUnits="userSpaceOnUse">
            <stop stop-color="#514d00" stop-opacity=".16492233" offset="0"/>
            <stop stop-color="#fff866" stop-opacity=".34117648" offset="1"/>
        </linearGradient>
        <linearGradient id="linearGradient4027" x1="460" x2="460" y1="160" y2="480" gradientTransform="translate(-19.810399)" gradientUnits="userSpaceOnUse">
            <stop stop-color="#f9c82f" offset="0"/>
            <stop stop-color="#f9c82f" offset=".40000001"/>
            <stop stop-color="#e29b0e" offset="1"/>
        </linearGradient>
        <filter id="filter1477" x="-.48" y="-.48" width="1.96" height="1.96" color-interpolation-filters="sRGB">
            <feGaussianBlur stdDeviation="3.2"/>
        </filter>
        <filter id="filter1731" x="-.15633109" y="-.24875706" width="1.3126622" height="1.4975141" color-interpolation-filters="sRGB">
            <feGaussianBlur stdDeviation="17.427214"/>
        </filter>
        <filter id="filter2161" x="-.047434036" y="-.048579633" width="1.0948681" height="1.0971593" color-interpolation-filters="sRGB">
            <feGaussianBlur stdDeviation="2.5589765"/>
        </filter>
        <linearGradient id="linearGradient2230" x1="371.63297" x2="385.4837" y1="299.26953" y2="369.63187" gradientUnits="userSpaceOnUse">
            <stop stop-color="#000001" stop-opacity=".19607843" offset="0"/>
            <stop stop-color="#000001" stop-opacity="0" offset="1"/>
        </linearGradient>
        <filter id="filter2572" x="-.10119876" y="-.087896948" width="1.2023975" height="1.1757939" color-interpolation-filters="sRGB">
            <feGaussianBlur stdDeviation="3.2734707"/>
        </filter>
        <filter id="filter3753" x="-.49449729" y="-.24146119" width="1.9889946" height="1.4829224" color-interpolation-filters="sRGB">
            <feGaussianBlur stdDeviation="5.8763565"/>
        </filter>
        <filter id="filter4879" x="-.38498718" y="-.2457499" width="1.7699744" height="1.4914998" color-interpolation-filters="sRGB">
            <feGaussianBlur stdDeviation="4.9063087"/>
        </filter>
        <filter id="filter4944" x="-.044109409" y="-.052643308" width="1.0882188" height="1.1052866" color-interpolation-filters="sRGB">
            <feGaussianBlur stdDeviation="5.0534905"/>
        </filter>
        <filter id="filter5578" x="-.010142791" y="-.014689794" width="1.0202856" height="1.0293796" color-interpolation-filters="sRGB">
            <feGaussianBlur stdDeviation="0.89143446"/>
        </filter>
        <filter id="filter6030" x="-.07180511" y="-.13638996" width="1.1436102" height="1.2727799" color-interpolation-filters="sRGB">
            <feGaussianBlur stdDeviation="4.953248"/>
        </filter>
        <filter id="filter6499" x="-.19806196" y="-.18629809" width="1.3961239" height="1.3725962" color-interpolation-filters="sRGB">
            <feGaussianBlur stdDeviation="6.4103528"/>
        </filter>
        <filter id="filter6889" x="-.14202776" y="-.29622698" width="1.2840555" height="1.592454" color-interpolation-filters="sRGB">
            <feGaussianBlur stdDeviation="4.401304"/>
        </filter>
        <linearGradient id="linearGradient6913" x1="107.62943" x2="219.87244" y1="406.95575" y2="322.70578" gradientTransform="translate(.81039864)" gradientUnits="userSpaceOnUse">
            <stop stop-color="#fff866" stop-opacity="0" offset="0"/>
            <stop stop-color="#fff866" stop-opacity=".27861562" offset="1"/>
        </linearGradient>
        <filter id="filter3171-89-8-6" x="-.69312" y="-.69312" width="2.38624" height="2.38624" color-interpolation-filters="sRGB">
            <feGaussianBlur stdDeviation="1.1552"/>
        </filter>
        <filter id="filter7079" x="-.49162451" y="-.49162451" width="1.983249" height="1.983249" color-interpolation-filters="sRGB">
            <feGaussianBlur stdDeviation="0.81937418"/>
        </filter>
        <filter id="filter7201" x="-.58800535" y="-.58800535" width="2.1760107" height="2.1760107" color-interpolation-filters="sRGB">
            <feGaussianBlur stdDeviation="0.98000892"/>
        </filter>
        <filter id="filter7242" x="-.49240481" y="-.49240481" width="1.9848096" height="1.9848096" color-interpolation-filters="sRGB">
            <feGaussianBlur stdDeviation="0.82067468"/>
        </filter>
        <filter id="filter7488" x="-.34160501" y="-.49213749" width="1.68321" height="1.984275" color-interpolation-filters="sRGB">
            <feGaussianBlur stdDeviation="4.0999171"/>
        </filter>
        <filter id="filter7488-6" x="-.34160501" y="-.49213749" width="1.68321" height="1.984275" color-interpolation-filters="sRGB">
            <feGaussianBlur stdDeviation="4.0999171"/>
        </filter>
        <clipPath id="clipPath7629">
            <path d="m-251.12029 99.065827c-36.88119 16.521273-78.42906 23.824863-90.64619 89.062973 13.01426 34.44696 42.04435 33.79195 75.17252 53.01993 25.59593 12.02832-8.85119 66.55655-39.04271 38.94375-7.32235-7.56048-0.34756-28.59322-9.59144-41.7106-5.89148-4.62766-25.09136-12.48941-25.689 16.83668 1.8395 18.55536 16.9382 15.75521 20.30391 23.23319 14.1469 17.28251-26.54889 54.99903-45.60535 24.17911-5.17794-9.89851 14.81923-34.63963 15.75146-48.14264 1.99067-17.49361-13.07369-28.12877-26.09487 9.69248 1.96963 14.14384 5.26141 28.11867 1.83784 42.95197-5.78642 15.81546-32.09559 24.13544-45.06349 15.12779-6.66787-4.63158-14.56919-14.06378-4.81848-28.97472 7.85802-9.49223 10.8074-9.74069 17.59585-16.66706 3.9807-4.06156 8.81717-11.94876 14.65307-21.13555 15.00883-36.46869 6.55446-28.65332-9.05411-9.96673-1.73369 7.12298-3.84355 14.12378-9.75311 19.89067-9.9718 15.65538-53.16924 15.52141-31.74262-18.99265 15.92015-20.23738 49.53704-28.00366 77.14133-70.47391 11.65813-33.67134 33.27759-62.4401 71.06757-81.596557 18.76727-8.001266 31.8666-3.206575 43.57782 4.721874z"/>
        </clipPath>
        <clipPath id="clipPath7633">
            <path d="m-353.07165 92.678859c-19.57907 28.778651-50.27069 54.383841-11.11831 99.934611 37.6651 14.11775 62.50645-1.09231 106.10824-6.41129 31.52878-5.81384 43.09743 44.62752-4.34366 43.39468-12.16532-0.81942-22.1378-17.05436-40.22385-20.24201-8.67669 0.21782-31.44043 5.27846-9.56811 23.25687 15.77504 10.24363 26.81704 0.85059 35.46545 3.63953 25.54668 3.19555 18.82284 46.69429-21.34705 37.84597-12.07874-3.32282-13.51526-28.43852-23.01266-37.05188-11.62076-11.55846-32.89227-10.27975-15.37787 19.15854 12.51991 7.51861 26.06491 14.26062 34.40336 24.94712 7.02582 12.48427-9.58719 30.92503-27.78582 32.11465-9.35742 0.61168-23.45742-1.04027-26.33195-15.00258-0.38888-9.73079 1.99601-11.38572 2.63281-19.02435 0.37341-4.47923-1.42748-11.70071-3.34831-20.21546-14.74647-29.63756-16.15863-20.61298-15.51451-1.38575 3.92585 5.17744 7.43004 10.47324 6.67506 16.96456 3.25 14.52378-34.56107 36.48858-42.21258 4.75371-1.55637-20.32083 21.85867-42.15735 13.52436-81.83977-15.5353-26.24172-18.63125-54.6126-0.27115-85.44313 10.27277-14.399732 25.36902-18.195363 41.64655-19.394021z"/>
        </clipPath>
        <clipPath id="clipPath7637">
            <path d="m243.02261 225.62306c4.26818 3.28151 7.66132 8.09608 16.55426 3.27513 3.53417-5.13942 1.71998-8.94313 2.14943-15.25843-0.0221-4.59987 8.85709-5.39982 7.20313 1.35302-0.50921 1.72313-3.55745 2.87283-4.64738 5.40133-0.22757 1.24254-0.0657 4.57822 3.63981 1.75889 2.21227-2.07937 0.96092-3.81458 1.69589-5.0023 1.31861-3.5936 8.4668-1.89898 5.74706 3.68706-0.92974 1.66849-5.21909 1.44946-6.9645 2.66004-2.30794 1.46402-2.73995 4.52277 2.77001 2.5192 1.65244-1.66063 3.20485-3.48073 5.26538-4.49083 2.32444-0.79232 4.93547 1.89111 4.58204 4.50961-0.18173 1.34638-0.89061 3.33169-3.3384 3.50633-1.65676-0.10881-1.86384-0.47727-3.13568-0.69719-0.74579-0.12896-2.02139 6e-3 -3.51926 0.13668-5.4593 1.605-3.97681 1.95903-0.70699 2.19176 0.99482-0.4731 1.99681-0.88399 3.0711-0.66657 2.55415-0.21877 5.11497 5.55084-0.48267 6.1074-3.48248-0.12095-6.46028-3.83292-13.42219-3.31309-4.9093 1.77498-9.79948 1.7379-14.45166-1.40421-2.12113-1.70993-2.30275-3.92947-2.00938-6.27383z"/>
        </clipPath>
        <clipPath id="clipPath7641">
            <path d="m244.53233 219.71485c3.01641 2.59253 5.41441 6.39625 11.69924 2.58749 2.49766-4.06036 1.21554-7.06547 1.51904-12.05483-0.0156-3.6341 6.25949-4.26609 5.0906 1.06894-0.35987 1.36135-2.51412 2.26967-3.2844 4.26729-0.16083 0.98167-0.0465 3.617 2.57233 1.38961 1.56346-1.6428 0.6791-3.01369 1.19852-3.95205 0.93188-2.8391 5.98366-1.50027 4.06157 2.91295-0.65707 1.31818-3.68845 1.14513-4.92196 2.10155-1.63107 1.15664-1.93638 3.57318 1.95762 1.99027 1.16782-1.31196 2.26493-2.74993 3.72115-3.54795 1.64273-0.62596 3.488 1.49406 3.23822 3.56279-0.12843 1.0637-0.62941 2.63218-2.35931 2.77015-1.17086-0.086-1.31721-0.37706-2.21605-0.55081-0.52707-0.10188-1.42856 5e-3 -2.48714 0.10799-3.85819 1.26802-2.81049 1.54772-0.49964 1.73159 0.70306-0.37377 1.41119-0.6984 2.17041-0.52663 1.80507-0.17283 3.61485 4.38542-0.34111 4.82512-2.46114-0.0956-4.56561-3.02818-9.48574-2.61748-3.4695 1.40231-6.92549 1.37301-10.21328-1.10939-1.49904-1.35092-1.6274-3.10446-1.42007-4.9566z"/>
        </clipPath>
        <clipPath id="clipPath7645">
            <path d="m244.89994 213.69326c2.53002 2.00983 4.54134 4.95862 9.81275 2.00592 2.09492-3.14774 1.01953-5.47741 1.27409-9.34536-0.0131-2.81729 5.25016-3.30723 4.26975 0.82869-0.30183 1.05537-2.10872 1.75953-2.75479 3.30816-0.13489 0.76102-0.039 2.80403 2.15755 1.07727 1.31135-1.27355 0.56959-2.33632 1.00525-3.06377 0.78162-2.20097 5.01881-1.16307 3.40665 2.25823-0.55112 1.0219-3.09369 0.88775-4.1283 1.6292-1.36806 0.89667-1.62414 2.77006 1.64196 1.54293 0.97951-1.01708 1.89971-2.13184 3.12112-2.7505 1.37784-0.48527 2.92556 1.15825 2.71606 2.76201-0.10772 0.82462-0.52792 2.04056-1.97888 2.14752-0.98206-0.0666-1.10481-0.29231-1.85871-0.42701-0.44208-0.079-1.19821 4e-3 -2.08609 0.0837-3.23607 0.98301-2.3573 1.19985-0.41907 1.34239 0.58969-0.28976 1.18363-0.54142 1.82043-0.40826 1.514-0.13398 3.03196 3.39974-0.28611 3.74062-2.06428-0.0741-3.82941-2.34756-7.95617-2.02918-2.91005 1.08712-5.80877 1.06442-8.56641-0.86004-1.25732-1.04728-1.36498-2.40669-1.19108-3.84254z"/>
        </clipPath>
        <clipPath id="clipPath7649">
            <path d="m234.99052 206.22128c4.26819 3.28151 7.66132 8.09608 16.55427 3.27513 3.53416-5.13942 1.71997-8.94313 2.14942-15.25843-0.0221-4.59987 8.85709-5.39982 7.20313 1.35302-0.5092 1.72313-3.55744 2.87283-4.64738 5.40133-0.22756 1.24254-0.0657 4.57822 3.63982 1.75889 2.21227-2.07937 0.96092-3.81458 1.69589-5.0023 1.3186-3.5936 8.46679-1.89898 5.74706 3.68706-0.92974 1.66849-5.2191 1.44946-6.9645 2.66004-2.30795 1.46402-2.73995 4.52277 2.77 2.5192 1.65245-1.66063 3.20485-3.48073 5.26539-4.49083 2.32443-0.79232 4.93547 1.89111 4.58204 4.50961-0.18173 1.34638-0.89061 3.33169-3.33841 3.50632-1.65675-0.1088-1.86383-0.47726-3.13567-0.69718-0.74579-0.12896-2.0214 6e-3 -3.51927 0.13668-5.4593 1.605-3.9768 1.95903-0.70698 2.19176 0.99482-0.4731 1.9968-0.88399 3.0711-0.66657 2.55414-0.21877 5.11497 5.55084-0.48268 6.1074-3.48248-0.12095-6.46027-3.83292-13.42218-3.31309-4.9093 1.77498-9.79948 1.7379-14.45166-1.40421-2.12113-1.70993-2.30275-3.92947-2.00939-6.27383z"/>
        </clipPath>
        <clipPath id="clipPath7653">
            <path d="m35.793743 359.71595c23.607142 17.99565 42.374421 44.39854 91.560927 17.96067 19.54729-28.18436 9.51308-49.04378 11.88835-83.67663-0.12209-25.2255 48.98819-29.61235 39.84019 7.41991-2.81637 9.44957-19.67605 15.7545-25.70445 29.62069-1.25865 6.81403-0.36358 25.10674 20.13167 9.64568 12.23597-11.4032 5.3148-20.919 9.37988-27.43243 7.29314-19.70714 46.82948-10.41391 31.78675 20.21971-5.14235 9.14994-28.86659 7.94875-38.52034 14.58754-12.76516 8.02863-15.15455 24.80267 15.32077 13.81518 9.1396-9.1068 17.72587-19.08817 29.1226-24.6275 12.85635-4.34505 27.29787 10.37077 25.34306 24.73049-1.00513 7.38352-4.92593 18.27085-18.46456 19.22855-9.16343-0.59668-10.30879-2.61732-17.34327-3.82335-4.12496-0.70721-11.18026 0.0341-19.46492 0.74956-30.19514 8.80174-21.99553 10.74324-3.91031 12.01954 5.50233-2.59446 11.04425-4.84779 16.98613-3.65548 14.12686-1.19969 28.29066 30.4406-2.66966 33.49275-19.26143-0.66329-35.73149-21.01959-74.2375-18.16884-27.153119 9.73389-54.200482 9.53057-79.93149-7.70065-11.731861-9.37716-12.736416-21.54906-11.113827-34.40539z"/>
        </clipPath>
        <clipPath id="clipPath7657">
            <path d="m36.604142 359.71595c23.607142 17.99565 42.374421 44.39854 91.560928 17.96067 19.54729-28.18436 9.51308-49.04378 11.88835-83.67663-0.12209-25.2255 48.98819-29.61235 39.84019 7.41991-2.81637 9.44957-19.67605 15.7545-25.70445 29.62069-1.25865 6.81403-0.36358 25.10674 20.13167 9.64568 12.23597-11.4032 5.3148-20.919 9.37988-27.43243 7.29314-19.70714 46.82948-10.41391 31.78675 20.21971-5.14235 9.14994-28.86659 7.94875-38.52034 14.58754-12.76516 8.02863-15.15455 24.80267 15.32077 13.81518 9.1396-9.1068 17.72587-19.08817 29.1226-24.6275 12.85635-4.34505 27.29787 10.37077 25.34306 24.73049-1.00513 7.38352-4.92593 18.27085-18.46456 19.22855-9.16343-0.59668-10.30879-2.61732-17.34327-3.82335-4.12496-0.70721-11.18026 0.0341-19.46492 0.74956-30.19514 8.80174-21.99553 10.74324-3.91031 12.01954 5.50233-2.59446 11.04425-4.84779 16.98613-3.65548 14.12686-1.19969 28.29066 30.4406-2.66966 33.49275-19.26143-0.66329-35.73149-21.01959-74.2375-18.16884-27.15312 9.73389-54.200483 9.53057-79.931491-7.70065-11.731861-9.37716-12.736416-21.54906-11.113827-34.40539z"/>
        </clipPath>
        <clipPath id="clipPath7661">
            <path d="m35.793743 359.71595c23.607142 17.99565 42.374421 44.39854 91.560927 17.96067 19.54729-28.18436 9.51308-49.04378 11.88835-83.67663-0.12209-25.2255 48.98819-29.61235 39.84019 7.41991-2.81637 9.44957-19.67605 15.7545-25.70445 29.62069-1.25865 6.81403-0.36358 25.10674 20.13167 9.64568 12.23597-11.4032 5.3148-20.919 9.37988-27.43243 7.29314-19.70714 46.82948-10.41391 31.78675 20.21971-5.14235 9.14994-28.86659 7.94875-38.52034 14.58754-12.76516 8.02863-15.15455 24.80267 15.32077 13.81518 9.1396-9.1068 17.72587-19.08817 29.1226-24.6275 12.85635-4.34505 27.29787 10.37077 25.34306 24.73049-1.00513 7.38352-4.92593 18.27085-18.46456 19.22855-9.16343-0.59668-10.30879-2.61732-17.34327-3.82335-4.12496-0.70721-11.18026 0.0341-19.46492 0.74956-30.19514 8.80174-21.99553 10.74324-3.91031 12.01954 5.50233-2.59446 11.04425-4.84779 16.98613-3.65548 14.12686-1.19969 28.29066 30.4406-2.66966 33.49275-19.26143-0.66329-35.73149-21.01959-74.2375-18.16884-27.153119 9.73389-54.200482 9.53057-79.93149-7.70065-11.731861-9.37716-12.736416-21.54906-11.113827-34.40539z"/>
        </clipPath>
        <clipPath id="clipPath7673">
            <path d="m35.793743 359.71595c23.607142 17.99565 42.374421 44.39854 91.560927 17.96067 19.54729-28.18436 9.51308-49.04378 11.88835-83.67663-0.12209-25.2255 48.98819-29.61235 39.84019 7.41991-2.81637 9.44957-19.67605 15.7545-25.70445 29.62069-1.25865 6.81403-0.36358 25.10674 20.13167 9.64568 12.23597-11.4032 5.3148-20.919 9.37988-27.43243 7.29314-19.70714 46.82948-10.41391 31.78675 20.21971-5.14235 9.14994-28.86659 7.94875-38.52034 14.58754-12.76516 8.02863-15.15455 24.80267 15.32077 13.81518 9.1396-9.1068 17.72587-19.08817 29.1226-24.6275 12.85635-4.34505 27.29787 10.37077 25.34306 24.73049-1.00513 7.38352-4.92593 18.27085-18.46456 19.22855-9.16343-0.59668-10.30879-2.61732-17.34327-3.82335-4.12496-0.70721-11.18026 0.0341-19.46492 0.74956-30.19514 8.80174-21.99553 10.74324-3.91031 12.01954 5.50233-2.59446 11.04425-4.84779 16.98613-3.65548 14.12686-1.19969 28.29066 30.4406-2.66966 33.49275-19.26143-0.66329-35.73149-21.01959-74.2375-18.16884-27.153119 9.73389-54.200482 9.53057-79.93149-7.70065-11.731861-9.37716-12.736416-21.54906-11.113827-34.40539z"/>
        </clipPath>
        <filter id="filter7869" x="-.23466031" y="-.41452711" width="1.4693206" height="1.8290542" color-interpolation-filters="sRGB">
            <feGaussianBlur stdDeviation="21.302484"/>
        </filter>
        <filter id="filter8231" x="-.067761808" y="-.15559142" width="1.1355236" height="1.3111828" color-interpolation-filters="sRGB">
            <feGaussianBlur stdDeviation="8.7094605"/>
        </filter>
        <filter id="filter8443" x="-.047603273" y="-.074469575" width="1.0952065" height="1.1489391" color-interpolation-filters="sRGB">
            <feGaussianBlur stdDeviation="6.4985299"/>
        </filter>
        <clipPath id="clipPath8852">
            <path d="m141.71707 59.44737c-16.43034-0.0695-33.96787 3.12047-52.455079 10.05664-121.48127 77.96468-92.14633 218.48558-70.64649 243.36523-8.16388-35.84989-3.16361-69.11496 19.10156-98.07422 32.14833 25.9965 82.050789 33.03906 82.050789 33.03906 9.35905 4.88538 139.01946-0.11003 160.24219-43.42578-16.69657-83.14911-67.09483-144.65955-138.29297-144.96093zm-0.95899 84.78906a59.402886 46.495498 2.3012149 0 1 3.02539 0.0644 59.402886 46.495498 2.3012149 0 1 57.41797 48.89453 59.402886 46.495498 2.3012149 0 1-61.28906 44.01563 59.402886 46.495498 2.3012149 0 1-57.417969-48.89453 59.402886 46.495498 2.3012149 0 1 58.263669-44.08008zm42.12696 69.36914a52.835908 40.134553 8.7307129 0 1-0.78321 0.73633 52.835908 40.134553 8.7307129 0 0 0.78321-0.73633z"/>
        </clipPath>
        <clipPath id="clipPath8856">
            <path d="m151.56051 61.117014c-15.2592-0.06646-31.54667 2.984033-48.71612 9.616932-112.82218 74.555814-85.578214 208.93269-65.610866 232.72452-7.581965-34.28241-2.938111-66.09303 17.740015-93.7861 29.856822 24.85985 76.202271 31.59449 76.202271 31.59449 8.69195 4.67177 129.11026-0.10522 148.82025-41.52707-15.50645-79.51357-62.31236-138.33457-128.43555-138.62278zm-0.89064 81.081816a55.171654 44.460182 2.6184489 0 1 2.80975 0.0616 55.171654 44.460182 2.6184489 0 1 53.32526 46.75671 55.171654 44.460182 2.6184489 0 1-56.92042 42.09112 55.171654 44.460182 2.6184489 0 1-53.325266-46.7567 55.171654 44.460182 2.6184489 0 1 54.110676-42.15276zm39.12419 66.3361a49.106794 38.350834 9.7718696 0 1-0.72739 0.70413 49.106794 38.350834 9.7718696 0 0 0.72739-0.70413z"/>
        </clipPath>
        <clipPath id="clipPath8860">
            <path d="m141.71707 59.44737c-16.43034-0.0695-33.96787 3.12047-52.455079 10.05664-121.48127 77.96468-92.14633 218.48558-70.64649 243.36523-8.16388-35.84989-3.16361-69.11496 19.10156-98.07422 32.14833 25.9965 82.050789 33.03906 82.050789 33.03906 9.35905 4.88538 139.01946-0.11003 160.24219-43.42578-16.69657-83.14911-67.09483-144.65955-138.29297-144.96093zm-0.95899 84.78906a59.402886 46.495498 2.3012149 0 1 3.02539 0.0644 59.402886 46.495498 2.3012149 0 1 57.41797 48.89453 59.402886 46.495498 2.3012149 0 1-61.28906 44.01563 59.402886 46.495498 2.3012149 0 1-57.417969-48.89453 59.402886 46.495498 2.3012149 0 1 58.263669-44.08008zm42.12696 69.36914a52.835908 40.134553 8.7307129 0 1-0.78321 0.73633 52.835908 40.134553 8.7307129 0 0 0.78321-0.73633z"/>
        </clipPath>
        <clipPath id="clipPath9128">
            <path d="m408.20327 140.78516c-79.13058 0.32417-93.95544 60.72783-93.5039 101.25781 0.26523 23.80703 32.73668 59.98512 56.93359 57.22656 18.33435-0.3973 31.4906-8.45267 32.75195-24.66211 0.82258-9.97404-1.2313-15.31763-2.43945-17.75586-0.13328-0.3878-0.28457-0.76995-0.45313-1.14453-2.4213-5.3718-7.83064-8.13681-12.08203-6.17578-3.71838 1.71643-5.39029 6.54641-3.97265 11.47656l-0.0762 0.0274c1.68425 14.15866 2.67663 27.44913-14.10157 25.64062-60.14383-25.46944-53.38317-109.69181 33.16407-100.52539 30.79291 7.68972 47.75528 29.54413 53.53906 57.80078 10.78727 64.64537-24.10486 131.54859-58.28689 167.31934 64.81673-12.13611 110.15177-75.68617 112.80837-146.81348 2.10357-56.3206-21.71673-118.40429-104.28125-123.67187z" fill="url(#linearGradient9132)"/>
        </clipPath>
        <linearGradient id="linearGradient9132" x1="358.80865" x2="333.6499" y1="182.01807" y2="340.62393" gradientUnits="userSpaceOnUse" xlink:href="#linearGradient4906"/>
        <clipPath id="clipPath9134">
            <path d="m408.20327 140.78516c-79.13058 0.32417-93.95544 60.72783-93.5039 101.25781 0.26523 23.80703 32.73668 59.98512 56.93359 57.22656 18.33435-0.3973 31.4906-8.45267 32.75195-24.66211 0.82258-9.97404-1.2313-15.31763-2.43945-17.75586-0.13328-0.3878-0.28457-0.76995-0.45313-1.14453-2.4213-5.3718-7.83064-8.13681-12.08203-6.17578-3.71838 1.71643-5.39029 6.54641-3.97265 11.47656l-0.0762 0.0274c1.68425 14.15866 2.67663 27.44913-14.10157 25.64062-60.14383-25.46944-53.38317-109.69181 33.16407-100.52539 30.79291 7.68972 47.75528 29.54413 53.53906 57.80078 10.78727 64.64537-24.10486 131.54859-58.28689 167.31934 64.81673-12.13611 110.15177-75.68617 112.80837-146.81348 2.10357-56.3206-21.71673-118.40429-104.28125-123.67187z" fill="url(#linearGradient9132)"/>
        </clipPath>
        <clipPath id="clipPath9140">
            <path d="m408.20327 140.78516c-79.13058 0.32417-93.95544 60.72783-93.5039 101.25781 0.26523 23.80703 32.73668 59.98512 56.93359 57.22656 18.33435-0.3973 31.4906-8.45267 32.75195-24.66211 0.82258-9.97404-1.2313-15.31763-2.43945-17.75586-0.13328-0.3878-0.28457-0.76995-0.45313-1.14453-2.4213-5.3718-7.83064-8.13681-12.08203-6.17578-3.71838 1.71643-5.39029 6.54641-3.97265 11.47656l-0.0762 0.0274c1.68425 14.15866 2.67663 27.44913-14.10157 25.64062-60.14383-25.46944-53.38317-109.69181 33.16407-100.52539 30.79291 7.68972 47.75528 29.54413 53.53906 57.80078 10.78727 64.64537-24.10486 131.54859-58.28689 167.31934 64.81673-12.13611 110.15177-75.68617 112.80837-146.81348 2.10357-56.3206-21.71673-118.40429-104.28125-123.67187z" fill="url(#linearGradient9132)"/>
        </clipPath>
        <clipPath id="clipPath9146">
            <path d="m393.63555 183.09946c-78.47726 5.82782-85.68297 41.28979-80.19965 64.34266 3.22086 13.5411 39.93535 31.83174 63.60209 28.53492 18.14295-1.5338 30.19651-7.06022 29.4343-16.38275-0.42293-5.73968-3.12476-8.63681-4.62647-9.93942-0.18042-0.21138-0.37802-0.41825-0.59181-0.61958-3.06991-2.887-8.78085-4.07613-12.75568-2.65598-3.47633 1.24282-4.53523 4.11311-2.51607 6.82013l-0.0722 0.021c3.43022 7.94438 6.06606 15.4436-10.80684 15.61004-62.84209-10.21775-66.59724-58.67129 20.41829-59.62237 31.50969 2.18393 51.05575 13.4221 60.30521 29.10407 18.73496 36.05143-7.57508 76.64651-37.04828 99.45851 62.80684-11.53488 99.89546-50.9648 93.69493-91.66697-4.90976-32.22912-36.25854-65.89202-118.83783-63.00427z" fill="url(#linearGradient9150)"/>
        </clipPath>
        <linearGradient id="linearGradient9150" x1="358.80865" x2="333.6499" y1="182.01807" y2="340.62393" gradientTransform="matrix(.99225273 -.07131474 .12423576 .56958031 -28.895807 132.02192)" gradientUnits="userSpaceOnUse" xlink:href="#linearGradient4906"/>
        <linearGradient id="linearGradient9156" x1="358.80865" x2="333.6499" y1="182.01807" y2="340.62393" gradientTransform="translate(-.68950352)" gradientUnits="userSpaceOnUse" xlink:href="#linearGradient4906"/>
        <clipPath id="clipPath9158">
            <path d="m408.20327 140.78516c-79.13058 0.32417-93.95544 60.72783-93.5039 101.25781 0.26523 23.80703 32.73668 59.98512 56.93359 57.22656 18.33435-0.3973 31.4906-8.45267 32.75195-24.66211 0.82258-9.97404-1.2313-15.31763-2.43945-17.75586-0.13328-0.3878-0.28457-0.76995-0.45313-1.14453-2.4213-5.3718-7.83064-8.13681-12.08203-6.17578-3.71838 1.71643-5.39029 6.54641-3.97265 11.47656l-0.0762 0.0274c1.68425 14.15866 2.67663 27.44913-14.10157 25.64062-60.14383-25.46944-53.38317-109.69181 33.16407-100.52539 30.79291 7.68972 47.75528 29.54413 53.53906 57.80078 10.78727 64.64537-24.10486 131.54859-58.28689 167.31934 64.81673-12.13611 110.15177-75.68617 112.80837-146.81348 2.10357-56.3206-21.71673-118.40429-104.28125-123.67187z" fill="url(#linearGradient9132)"/>
        </clipPath>
    </defs>
    <g>
        <path d="m219.86148 480.40625c-159.78125-320.27083-79.89063-160.13542 0 0zm0 0c5.43372 0.39553 10.88002 0.59358 16.32812 0.59375 124.26408 0 225.00001-100.73593 225-225-7.1e-4 -34.30539-7.84583-68.1564-22.93555-98.96484l-0.06445-0.03516-183 1 58 162zm218.39262-323.37105c-305.3763-104.69011-152.68815-52.34505 0 0z" fill="url(#linearGradient4027)" stroke-linecap="round" stroke-linejoin="round" stroke-width="2"/>
        <path d="m235.93765 31c-74.85585 0.084696-144.00424 37.864188-185.74805 100l91.999999 159 113-132 183-1 0.0645 0.0352c-37.77818-77.135483-116.17472-126.03433-202.0645-126.0352z" fill="url(#radialGradient1128)"/>
        <path d="m50.189601 131c-24.928309 37.10046-38.999462 80.30252-39 125 2.55e-4 117.92869 91.054119 215.84823 208.67188 224.40625l93.32812-160.40625-171-30z" fill="url(#linearGradient1272)" stroke-linecap="round" stroke-linejoin="round" stroke-width="2"/>
    </g>
    <g fill-opacity=".04">
        <path d="m46.994413 114.5332c-1.536205 2.12606-3.042467 4.27981-4.511719 6.4668l91.999996 159 1.08984-1.27344 1.91016-69.72656z"/>
        <path d="m239.1896 157 73 39 128.99609-32.74414c-0.9436-2.08573-1.91897-4.15693-2.92578-6.21289z"/>
        <path d="m315.1896 316-66 39-35.94922 124.82617a225 225 0 0 0 1.76367 0.17383h5.18555z"/>
    </g>
    <circle cx="236.18961" cy="256" r="100" fill="url(#linearGradient1051)" stroke-linecap="round" stroke-linejoin="round" stroke-width="2"/>
    <circle cx="236.18961" cy="256" r="84" fill="url(#linearGradient1039)" stroke-linecap="round" stroke-linejoin="round" stroke-width="2"/>
    <g>
        <path d="m407.51376 140.78516c-79.13058 0.32417-93.95544 60.72784-93.5039 101.2578 0.26523 23.80703 32.73668 59.98513 56.93359 57.22657 18.33435-0.3973 31.4906-8.45267 32.75195-24.66211 0.82258-9.97405-1.2313-15.31763-2.43945-17.75586-0.13328-0.38781-0.28457-0.76995-0.45313-1.14452-2.4213-5.37181-7.83064-8.13682-12.08203-6.17579-3.71838 1.71643-5.39029 6.54641-3.97265 11.47656l-0.0762 0.0273c1.68425 14.15866 2.67663 27.44913-14.10157 25.64062-60.14383-25.46944-53.38317-109.69182 33.16407-100.52539 30.79292 7.68973 47.75529 29.54413 53.53906 57.80079 10.78728 64.64536-24.57968 131.27416-58.76172 167.04491 64.81676-12.13608 110.62663-75.41173 113.28323-146.53904 2.10357-56.32059-21.71673-118.40429-104.28126-123.67186z"/>
        <path d="m407.51377 140.78517c-79.13058 0.32417-93.95544 60.72782-93.5039 101.25779 0.26522 23.80704 32.73667 59.98513 56.93357 57.22658 18.33435-0.39732 31.49061-8.45269 32.75196-24.66213 0.82259-9.97402-1.2313-15.31762-2.43945-17.75585-0.13325-0.3878-0.28457-0.76996-0.45314-1.14454-2.42129-5.37179-7.83064-8.13679-12.08203-6.17577-3.71836 1.71642-5.39027 6.54641-3.97263 11.47656l-0.0763 0.0273c1.68425 14.15868 2.67664 27.44914-14.10156 25.64063-60.14384-25.46946-53.38317-109.69182 33.16407-100.52539 30.7929 7.68971 47.75528 29.54413 53.53905 57.80077 10.78728 64.64538-24.10485 131.54858-58.28688 167.31934 64.81672-12.1361 110.15177-75.68617 112.80836-146.81349 2.10358-56.32057-21.71673-118.40428-104.28126-123.67184z" fill="url(#linearGradient9156)"/>
        <path transform="matrix(.76687757 0 0 .74800276 88.364683 77.170936)" d="m384.08008 294.68164c-7.78057 0.0323-16.19901 2.91417-24.54297 8.10742-23.46497 11.89419-29.23333 60.22632-14.11719 79.70508 0.40324 0.51961 0.83183 1.04557 1.24805 1.56836h23.73047c-16.6718-16.42182-20.70418-44.57987-3.07227-70.83398 13.87069-11.26799 21.55198 0.10002 29.17383 12.57617l0.0859-0.0215c1.90908 4.82977 6.52341 7.77283 10.96289 6.99414 5.07491-0.89148 8.13815-6.29582 6.84375-12.07031-0.0905-0.40249-0.20138-0.80074-0.33203-1.19336-0.48971-2.68475-2.09391-8.22061-9.26367-15.83594-5.7922-6.21011-12.93623-9.02839-20.7168-8.99609z" fill="url(#linearGradient2230)" filter="url(#filter2572)"/>
    </g>
    <path transform="translate(-.68951292)" d="m437.70984 341.56299-38.03372 69.70757 22.57918-2.0949z" clip-path="url(#clipPath9158)" fill="#000001" fill-opacity=".21960784" filter="url(#filter3753)"/>
    <circle transform="matrix(2.5774392,0,0,2.5774392,-271.68409,-379.64545)" cx="266.14395" cy="213.15929" r="2" fill="#fff766" fill-opacity=".138922" filter="url(#filter3171-89-5)"/>
    <circle transform="matrix(.99225273 .12423576 -.21642826 1.7285806 56.555704 -224.62063)" cx="385.50098" cy="248.77307" r="8" clip-path="url(#clipPath9146)" fill="#fff366" fill-opacity=".52" filter="url(#filter1477)" stroke-linecap="round" stroke-linejoin="round" stroke-width="1.51529"/>
    <path transform="translate(-.68951292)" d="m307.66905 246.20567c-2.30532-77.33973 160.45679-160.65024 205.00906 21.18486l50.66866 11.33572-39.34552-147.23947-173.35006-20.89772-42.12647 29.12129-12.7211 63.75605z" clip-path="url(#clipPath9140)" fill="#fff866" fill-opacity=".7" filter="url(#filter1731)"/>
    <path transform="translate(-.68951292)" d="m393.34961 182.70703c-1.98882-0.0342-4.02093 4e-3 -6.09766 0.12109-30.92923 1.73801-56.89318 17.09284-53.15039 43.58399l19.04688 13.35547 50.37109-38.49414 42.21289 64.8125-11.15234 30.7832 17.46875 12.24805c12.11695-5.60494 16.03139-56.11373 3.33594-82.92774-12.19372-25.75428-32.20291-42.9695-62.03516-43.48242z" clip-path="url(#clipPath9134)" fill="#295f7a" fill-opacity=".4" filter="url(#filter2161)"/>
    <path transform="translate(-.68951292)" d="m404.77119 254.92824-21.12536 47.91514 26.24933-8.36072 4.33647-32.76415z" clip-path="url(#clipPath9128)" fill="#295f7a" fill-opacity=".52" filter="url(#filter4879)"/>
    <g fill="#fff766" fill-opacity=".138922">
        <circle transform="matrix(2.5774392,0,0,2.5774392,-241.32537,-379.29794)" cx="266.14395" cy="213.15929" r="2" filter="url(#filter3171-89-4)"/>
        <circle transform="matrix(2.5774392,0,0,2.5774392,-252.65944,-361.1145)" cx="266.14395" cy="213.15929" r="2" filter="url(#filter3171-89-7)"/>
        <circle transform="matrix(2.5774392,0,0,2.5774392,-227.0567,-355.44309)" cx="266.14395" cy="213.15929" r="2" filter="url(#filter3171-89-8)"/>
        <circle transform="matrix(2.5774392,0,0,2.5774392,-237.1827,-344.54176)" cx="266.14395" cy="213.15929" r="2" filter="url(#filter3171-89-1)"/>
        <circle transform="matrix(2.5774392,0,0,2.5774392,-218.99272,-323.6856)" cx="266.14395" cy="213.15929" r="2" filter="url(#filter3171-89-0)"/>
        <circle transform="matrix(2.5774392,0,0,2.5774392,-208.34691,-212.50183)" cx="266.14395" cy="213.15929" r="2" filter="url(#filter3171-89-9)"/>
        <circle transform="matrix(1.4188088,0,0,1.4188088,92.133508,-95.239903)" cx="266.14395" cy="213.15929" r="2" filter="url(#filter3171-6-8)"/>
        <circle transform="matrix(1.4188088,0,0,1.4188088,108.04533,-68.709294)" cx="266.14395" cy="213.15929" r="2" filter="url(#filter3171-6-7)"/>
        <circle transform="matrix(1.4188088,0,0,1.4188088,95.917288,-54.576604)" cx="266.14395" cy="213.15929" r="2" filter="url(#filter3171-6-22)"/>
        <circle transform="matrix(1.4188088,0,0,1.4188088,98.756158,-18.414006)" cx="266.14395" cy="213.15929" r="2" filter="url(#filter3171-6-22-6)"/>
        <circle transform="matrix(1.4188088,0,0,1.4188088,89.919338,2.6282911)" cx="266.14395" cy="213.15929" r="2" filter="url(#filter3171-6-7-9)"/>
        <circle transform="matrix(1.4188088,0,0,1.4188088,76.055128,38.690318)" cx="266.14395" cy="213.15929" r="2" filter="url(#filter3171-6-7-0)"/>
        <circle transform="matrix(1.4188088,0,0,1.4188088,84.409648,21.228297)" cx="266.14395" cy="213.15929" r="2" filter="url(#filter3171-6-7-7)"/>
        <circle transform="matrix(1.4188088,0,0,1.4188088,102.45218,9.1428785)" cx="266.14395" cy="213.15929" r="2" filter="url(#filter3171-6-7-5)"/>
        <circle transform="matrix(1.4188088,0,0,1.4188088,111.66395,-31.661035)" cx="266.14395" cy="213.15929" r="2" filter="url(#filter3171-6-22-67)"/>
    </g>
    <path d="m163.35728 278.36328c-8.03164-0.27386-16.65018 3.51478-20.79493 10.39258 0.1431 0.41567 0.28893 0.83039 0.4375 1.24414l-0.57812-0.99805c-1.50486 2.58979-2.38557 5.6033-2.36914 8.99805-2.37527 34.63285 7.66057 55.49142-11.88672 83.67578-45.603405 24.51194-65.061623 3.60692-86.468752-13.91211 8.646457 15.11743 19.003052 29.14792 30.814453 41.82227 18.072346 4.89424 36.581069 2.88888 55.138669-3.76367 38.50601-2.85075 54.97529 13.50527 74.23672 14.16856 30.96032-3.05215 16.79639-30.69247 2.66953-29.49278-5.94188-1.19231-11.48399 1.06179-16.98632 3.65625-18.08522-1.2763-26.28499-3.21779 3.91015-12.01953 8.28466-0.71546 15.33989-1.45721 19.46485-0.75 7.03448 1.20603 8.18032 3.22558 17.34375 3.82226 13.53863-0.9577 17.45971-11.84499 18.46484-19.22851 1.95481-14.35972-12.4874-29.07552-25.34375-24.73047-11.39673 5.53933-19.98345 15.5221-29.12305 24.6289-30.47532 10.98749-28.08547-5.78777-15.32031-13.8164 9.65375-6.63879 33.37913-5.43795 38.52148-14.58789 15.04273-30.63362-24.49397-39.92589-31.78711-20.21875-4.06508 6.51343 2.85512 16.02844-9.38085 27.43164-20.49525 15.46106-21.38951-2.8305-20.13086-9.64453 6.0284-13.86619 22.8887-20.17153 25.70507-29.6211 4.574-18.51613-5.4183-26.67751-16.5371-27.05664z" fill="#000001" fill-opacity=".219608" filter="url(#filter5578)"/>
    <path d="m36.604142 359.71595c23.607142 17.99565 42.374421 44.39854 91.560928 17.96067 19.54729-28.18436 9.51308-49.04378 11.88835-83.67663-0.12209-25.2255 48.98819-29.61235 39.84019 7.41991-2.81637 9.44957-19.67605 15.7545-25.70445 29.62069-1.25865 6.81403-0.36358 25.10674 20.13167 9.64568 12.23597-11.4032 5.3148-20.919 9.37988-27.43243 7.29314-19.70714 46.82948-10.41391 31.78675 20.21971-5.14235 9.14994-28.86659 7.94875-38.52034 14.58754-12.76516 8.02863-15.15455 24.80267 15.32077 13.81518 9.1396-9.1068 17.72587-19.08817 29.1226-24.6275 12.85635-4.34505 27.29787 10.37077 25.34306 24.73049-1.00513 7.38352-4.92593 18.27085-18.46456 19.22855-9.16343-0.59668-10.30879-2.61732-17.34327-3.82335-4.12496-0.70721-11.18026 0.0341-19.46492 0.74956-30.19514 8.80174-21.99553 10.74324-3.91031 12.01954 5.50233-2.59446 11.04425-4.84779 16.98613-3.65548 14.12686-1.19969 28.29066 30.4406-2.66966 33.49275-19.26143-0.66329-35.73149-21.01959-74.2375-18.16884-27.15312 9.73389-54.200483 9.53057-79.931491-7.70065-11.731861-9.37716-12.736416-21.54906-11.113827-34.40539z"/>
    <ellipse transform="translate(.81039864)" cx="131.89462" cy="441.78415" rx="82.778198" ry="43.58017" clip-path="url(#clipPath7673)" fill="#295f7a" fill-opacity=".521569" filter="url(#filter6030)"/>
    <path transform="translate(.81039864)" d="m67.701172 411.58594-49.162384-54.25272-28.514557 82.58188z" clip-path="url(#clipPath7661)" fill="#fff866" fill-opacity=".698039" filter="url(#filter6499)"/>
    <path d="m36.604139 359.71596c23.607142 17.99564 42.374421 44.39853 91.560931 17.96066 19.54729-28.18435 9.51308-49.04377 11.88835-83.67662-0.12209-25.2255 48.98819-29.61235 39.84019 7.41991-2.81637 9.44957-19.67605 15.7545-25.70445 29.62069-1.25865 6.81403-0.36358 25.10674 20.13167 9.64568 12.23597-11.4032 5.3148-20.919 9.37988-27.43243 7.29314-19.70714 46.82948-10.41391 31.78675 20.21971-5.14235 9.14994-28.86659 7.94875-38.52034 14.58754-12.76516 8.02863-15.15455 24.80267 15.32077 13.81518 9.1396-9.1068 17.72587-19.08817 29.1226-24.6275 12.85635-4.34505 27.29787 10.37077 25.34306 24.73049-1.00513 7.38352-4.92593 18.27084-18.46456 19.22854-9.16343-0.59668-10.30879-2.61732-17.34327-3.82335-4.12496-0.70721-11.18026 0.0341-19.46492 0.74956-30.19514 8.80174-21.99553 10.74324-3.91031 12.01954 5.50233-2.59446 11.04425-4.84779 16.98613-3.65548 14.12686-1.19969 28.29066 30.4406-2.66966 33.49275-19.26143-0.66329-35.73149-21.01959-74.2375-18.16884-27.15312 9.73389-54.200486 9.53057-79.931494-7.70065-11.731861-9.37716-12.736416-21.54905-11.113827-34.40538z" clip-path="url(#clipPath7657)" fill="url(#linearGradient6913)"/>
    <ellipse transform="translate(.81039864)" cx="91.652214" cy="371.99252" rx="37.186848" ry="17.829453" clip-path="url(#clipPath7653)" fill="#fffba3" fill-opacity=".639408" filter="url(#filter6889)"/>
    <g fill="#fffbb8">
        <circle transform="matrix(5.5309556,0,0,5.4839585,-1263.118,-771.19301)" cx="266.14395" cy="213.15929" r="2" clip-path="url(#clipPath7649)" fill-opacity=".22" filter="url(#filter3171-89-8-6)"/>
        <g fill-opacity=".44">
            <circle transform="matrix(9.3308095,0,0,8.9538128,-2248.5105,-1553.6535)" cx="266.14395" cy="213.15929" r="2" clip-path="url(#clipPath7645)" filter="url(#filter7079)"/>
            <circle transform="matrix(7.8262288,0,0,6.9413322,-1877.1618,-1165.3978)" cx="266.14395" cy="213.15929" r="2" clip-path="url(#clipPath7641)" filter="url(#filter7242)"/>
            <circle transform="matrix(5.5309556,0,0,5.4839585,-1307.5431,-877.59157)" cx="266.14395" cy="213.15929" r="2" clip-path="url(#clipPath7637)" filter="url(#filter7201)"/>
        </g>
        <path transform="matrix(.16853206 -.7830012 .93495859 .09261082 9.4571396 74.677357)" d="m-320.71188 261.60198a13.724369 15.181882 0 0 1-19.04652-3.5389 13.724369 15.181882 0 0 1 3.01132-21.10309 13.724369 15.181882 0 0 1 19.10587 3.12301 13.724369 15.181882 0 0 1-2.63479 21.16464l-8.34372-12.05405z" clip-path="url(#clipPath7633)" fill-opacity=".59513" filter="url(#filter7488)"/>
        <path transform="matrix(-.33003174 -.73077629 .69214853 -.54210431 -114.84179 229.90721)" d="m-320.71188 261.60198a13.724369 15.181882 0 0 1-19.04652-3.5389 13.724369 15.181882 0 0 1 3.01132-21.10309 13.724369 15.181882 0 0 1 19.10587 3.12301 13.724369 15.181882 0 0 1-2.63479 21.16464l-8.34372-12.05405z" clip-path="url(#clipPath7629)" fill-opacity=".59513" filter="url(#filter7488-6)"/>
    </g>
    <g fill="#fff766" fill-opacity=".137255">
        <circle transform="matrix(1.8738679,0,0,1.8441876,-358.3539,-5.851815)" cx="266.14395" cy="213.15929" r="2" filter="url(#filter3171-20-7-5-6-5)"/>
        <circle transform="matrix(2.5774392,0,0,2.5774392,-540.37047,-184.53787)" cx="266.14395" cy="213.15929" r="2" filter="url(#filter3171-20-7-5-6-4)"/>
        <circle transform="matrix(3.1407298,0,0,3.2920028,-674.49315,-324.97321)" cx="266.14395" cy="213.15929" r="2" filter="url(#filter3171-8-9)"/>
    </g>
    <ellipse transform="matrix(.67627208 .73665194 -.70886699 .70534218 0 0)" cx="241.11298" cy="-100.59745" rx="31.579161" ry="11.604006"/>
    <ellipse transform="matrix(.67627208 .73665194 -.70886699 .70534218 0 0)" cx="241.11298" cy="-100.59744" rx="31.579161" ry="11.604006" fill="url(#radialGradient908)"/>
    <path transform="translate(.61039924)" d="m127.41345 113.17595c-16.43034-0.0696-22.5881 5.52344-41.075315 12.45961-50.607571 32.4791-72.459479 19.66326-81.900635 60.95428 8.033693 32.39334-11.992688 60.77665 2.5398559 57.92492 19.091368-3.74632 18.62412-9.44327 32.380043 4.315 19.924842 19.92822 55.703386 35.97472 79.800801 41.00422 86.57249-0.39556 136.45491-42.40545 157.67765-85.7212-6.67755-9.02089-6.92378 11.71475-6.92378 3.71475-57.48749-74.08749-71.30047-94.35019-142.49862-94.65158z" fill="#030303" fill-opacity=".28" filter="url(#filter4944)"/>
    <path d="m18.615247 312.86832c-8.16388-35.84989-3.16313-69.11359 19.102036-98.07285 32.148331 25.9965 82.050707 33.03885 82.050707 33.03885 9.35905 4.88538 139.01875-0.10982 160.24149-43.42557-20.54962-102.33737-92.14964-171.89789-190.74813-134.90501-121.48127 77.964682-92.145941 218.48493-70.646103 243.36458z"/>
    <path d="m297.11411 205.4664-18.62662-13.76355c-69.80088 31.82281-125.1348 87.33581-277.98121-16.83163 1.5656147 33.37533 6.6660018 76.41218 31.275695 134.34356l277.19756-61.00911z" clip-path="url(#clipPath8852)" fill="#295f7a" fill-opacity=".521569" filter="url(#filter8231)"/>
    <g>
        <ellipse transform="matrix(.98591916 .16722261 -.17850554 .98393891 0 0)" cx="171.81425" cy="160.66406" rx="52.831177" ry="40.140781" fill="url(#linearGradient3907)"/>
        <ellipse transform="rotate(11.62617)" cx="174.37059" cy="153.07123" rx="43.796509" ry="34.653" fill="url(#linearGradient3897)"/>
        <ellipse transform="matrix(.97867162 .20543091 -.19768782 .98026503 -27.517304 -10)" cx="200.26003" cy="155.79771" rx="37.264736" ry="30.032335" fill="#463231" filter="url(#filter1847)"/>
        <ellipse transform="matrix(1.1610652 .24158535 -.22969927 1.1290377 -59.159542 -40.007291)" cx="201.53168" cy="156.02773" rx="19.180561" ry="15.783096" fill="#181c0c" filter="url(#filter1424)" style="mix-blend-mode:normal"/>
        <ellipse transform="matrix(.97975473 .20020159 -.20285708 .97920836 0 0)" cx="172.1881" cy="153.29375" rx="39.138401" ry="30.772604" fill="url(#radialGradient1878)" style="mix-blend-mode:normal"/>
        <ellipse transform="matrix(.97975473 .20020159 -.20285708 .97920836 0 0)" cx="172.1881" cy="153.29375" rx="39.138401" ry="30.772604" fill="url(#radialGradient1878-5)" style="mix-blend-mode:normal"/>
    </g>
    <g fill="#fff">
        <g fill-opacity=".196314">
            <circle transform="matrix(2.5774392,0,0,2.5774392,-456.65213,-370.08252)" cx="266.14395" cy="213.15929" r="2" filter="url(#filter3171)"/>
            <circle transform="matrix(1.9682092,0,0,1.9682092,-276.2847,-227.26497)" cx="266.14395" cy="213.15929" r="2" filter="url(#filter3171-0)"/>
            <circle transform="matrix(1.4188088,0,0,1.4188088,-148.11349,-100.30274)" cx="266.14395" cy="213.15929" r="2" filter="url(#filter3171-6)"/>
            <circle transform="matrix(2.5774392,0,0,2.5774392,-456.52169,-404.83174)" cx="266.14395" cy="213.15929" r="2" filter="url(#filter3171-2)"/>
            <circle transform="matrix(2.5774392,0,0,2.5774392,-485.12975,-414.81922)" cx="266.14395" cy="213.15929" r="2" filter="url(#filter3171-8)"/>
            <circle transform="matrix(2.5774392,0,0,2.5774392,-616.76073,-363.98263)" cx="266.14395" cy="213.15929" r="2" filter="url(#filter3171-5)"/>
            <circle transform="matrix(2.5774392,0,0,2.5774392,-473.01887,-394.50439)" cx="266.14395" cy="213.15929" r="2" filter="url(#filter3171-89)"/>
        </g>
        <g fill-opacity=".1">
            <circle transform="matrix(1.4188088,0,0,1.4188088,-141.82127,-140.1539)" cx="266.14395" cy="213.15929" r="2" filter="url(#filter3171-6-2)"/>
            <circle transform="matrix(1.4188088,0,0,1.4188088,-185.72551,-150.6051)" cx="266.14395" cy="213.15929" r="2" filter="url(#filter3171-6-2-1)"/>
            <circle transform="matrix(2.5774392,0,0,2.5774392,-607.94949,-343.35078)" cx="266.14395" cy="213.15929" r="2" filter="url(#filter3171-20-7-5-6)"/>
            <circle transform="matrix(2.5774392,0,0,2.5774392,-626.67091,-349.72732)" cx="266.14395" cy="213.15929" r="2" filter="url(#filter3171-20-7-5-6-6)"/>
            <circle transform="matrix(2.5774392,0,0,2.5774392,-660.45914,-389.73617)" cx="266.14395" cy="213.15929" r="2" filter="url(#filter3171-20-7-5-6-0)"/>
            <circle transform="matrix(1.4188088,0,0,1.4188088,-307.55491,-144.64663)" cx="266.14395" cy="213.15929" r="2" filter="url(#filter3171-6-5-7)"/>
        </g>
        <ellipse transform="matrix(1.3747228,0,0,1.5345644,-83.30788,-73.538938)" cx="160.28671" cy="122.04182" rx="26.135178" ry="12.169937" fill-opacity=".28" filter="url(#filter3885)"/>
        <circle transform="matrix(2.5774392,0,0,2.5774392,-497.82975,-435.63817)" cx="266.14395" cy="213.15929" r="2" fill-opacity=".196314" filter="url(#filter3171-20)"/>
        <g fill-opacity=".1">
            <circle transform="matrix(2.5774392,0,0,2.5774392,-510.74953,-412.47172)" cx="266.14395" cy="213.15929" r="2" filter="url(#filter3171-20-7)"/>
            <circle transform="matrix(1.4188088,0,0,1.4188088,-298.68303,-169.91799)" cx="266.14395" cy="213.15929" r="2" filter="url(#filter3171-6-5)"/>
            <circle transform="matrix(2.5774392,0,0,2.5774392,-529.12043,-431.28158)" cx="266.14395" cy="213.15929" r="2" filter="url(#filter3171-20-7-5)"/>
            <circle transform="matrix(1.4188088,0,0,1.4188088,-285.35907,-196.93843)" cx="266.14395" cy="213.15929" r="2" filter="url(#filter3171-6-5-6)"/>
            <circle transform="matrix(1.4188088,0,0,1.4188088,-264.09681,-182.94055)" cx="266.14395" cy="213.15929" r="2" filter="url(#filter3171-6-5-74)"/>
        </g>
    </g>
    <path d="m140.75808 144.23633a59.402886 46.495498 2.3012149 0 0-58.26172 44.08008 59.402886 46.495498 2.3012149 0 0 57.41602 48.89453 59.402886 46.495498 2.3012149 0 0 61.28906-44.01563 59.402886 46.495498 2.3012149 0 0-57.41602-48.89453 59.402886 46.495498 2.3012149 0 0-3.02734-0.0644zm-4.43555 2.10742a52.835908 40.134553 8.7307129 0 1 11.5586 0.97461 52.835908 40.134553 8.7307129 0 1 44.92187 48.33203 52.835908 40.134553 8.7307129 0 1-59.25195 30.66016 52.835908 40.134553 8.7307129 0 1-44.92188-48.33008 52.835908 40.134553 8.7307129 0 1 47.69336-31.63672z" fill="url(#linearGradient3954)"/>
    <path d="m273.71698 221.58011c-19.69455-123.81399-133.80662-197.96918-251.38974-86.76911l29.910675-122.66503 297.72376 100.44309z" clip-path="url(#clipPath8860)" fill="#fff866" fill-opacity=".698039" filter="url(#filter8443)"/>
    <ellipse transform="matrix(1.0767499,0,0,1.0457223,-21.475692,-4.4640542)" cx="142.61745" cy="106.16284" rx="108.93611" ry="61.667816" clip-path="url(#clipPath8856)" fill="#fff866" fill-opacity=".577047" filter="url(#filter7869)"/>
</svg>
