<svg width="16" height="16" viewBox="0 0 16 16" fill="none" xmlns="http://www.w3.org/2000/svg">
	<g filter="url(#filter0_d_22_78)">
		<path
			d="M0.951442 4.46521L2.85851 5.54768C3.15861 5.72165 3.48774 5.79897 3.81688 5.79897C4.48484 5.79897 5.14312 5.45103 5.5013 4.82281C6.03373 3.89497 5.70459 2.71585 4.78494 2.18428L2.78106 1.04381C3.60391 0.396263 4.63005 0 5.75299 0C8.42482 0 10.5933 2.16495 10.5933 4.83247C10.5933 5.45103 10.4674 6.04059 10.2544 6.59149L15.3464 11.6946C16.1015 12.4485 16.1015 13.6759 15.3464 14.4298C14.9689 14.8067 14.4752 15 13.9815 15C13.4877 15 12.994 14.8067 12.6165 14.4298L7.51485 9.33634C6.97274 9.54897 6.38223 9.67461 5.75299 9.67461C3.08116 9.67461 0.91272 7.50967 0.91272 4.84214C0.91272 4.7165 0.941761 4.59085 0.951442 4.46521Z"
			fill="context-fill" />
		<path
			d="M0.951442 4.46521L2.85851 5.54768C3.15861 5.72165 3.48774 5.79897 3.81688 5.79897C4.48484 5.79897 5.14312 5.45103 5.5013 4.82281C6.03373 3.89497 5.70459 2.71585 4.78494 2.18428L2.78106 1.04381C3.60391 0.396263 4.63005 0 5.75299 0C8.42482 0 10.5933 2.16495 10.5933 4.83247C10.5933 5.45103 10.4674 6.04059 10.2544 6.59149L15.3464 11.6946C16.1015 12.4485 16.1015 13.6759 15.3464 14.4298C14.9689 14.8067 14.4752 15 13.9815 15C13.4877 15 12.994 14.8067 12.6165 14.4298L7.51485 9.33634C6.97274 9.54897 6.38223 9.67461 5.75299 9.67461C3.08116 9.67461 0.91272 7.50967 0.91272 4.84214C0.91272 4.7165 0.941761 4.59085 0.951442 4.46521Z"
			fill="url(#paint0_linear_22_78)" />
		<g filter="url(#filter1_i_22_78)">
			<path
				d="M0.951442 4.46521L2.85851 5.54768C3.15861 5.72165 3.48774 5.79897 3.81688 5.79897C4.48484 5.79897 5.14312 5.45103 5.5013 4.82281C6.03373 3.89497 5.70459 2.71585 4.78494 2.18428L2.78106 1.04381C3.60391 0.396263 4.63005 0 5.75299 0C8.42482 0 10.5933 2.16495 10.5933 4.83247C10.5933 5.45103 10.4674 6.04059 10.2544 6.59149L15.3464 11.6946C16.1015 12.4485 16.1015 13.6759 15.3464 14.4298C14.9689 14.8067 14.4752 15 13.9815 15C13.4877 15 12.994 14.8067 12.6165 14.4298L7.51485 9.33634C6.97274 9.54897 6.38223 9.67461 5.75299 9.67461C3.08116 9.67461 0.91272 7.50967 0.91272 4.84214C0.91272 4.7165 0.941761 4.59085 0.951442 4.46521Z"
				fill="white" fill-opacity="0.01" />
		</g>
	</g>
	<defs>
		<filter id="filter0_d_22_78" x="0.91272" y="0" width="15" height="16"
			filterUnits="userSpaceOnUse" color-interpolation-filters="sRGB">
			<feFlood flood-opacity="0" result="BackgroundImageFix" />
			<feColorMatrix in="SourceAlpha" type="matrix"
				values="0 0 0 0 0 0 0 0 0 0 0 0 0 0 0 0 0 0 127 0" result="hardAlpha" />
			<feOffset dy="1" />
			<feComposite in2="hardAlpha" operator="out" />
			<feColorMatrix type="matrix" values="0 0 0 0 1 0 0 0 0 1 0 0 0 0 1 0 0 0 0.7 0" />
			<feBlend mode="normal" in2="BackgroundImageFix" result="effect1_dropShadow_22_78" />
			<feBlend mode="normal" in="SourceGraphic" in2="effect1_dropShadow_22_78" result="shape" />
		</filter>
		<filter id="filter1_i_22_78" x="0.91272" y="0" width="16" height="16"
			filterUnits="userSpaceOnUse" color-interpolation-filters="sRGB">
			<feFlood flood-opacity="0" result="BackgroundImageFix" />
			<feBlend mode="normal" in="SourceGraphic" in2="BackgroundImageFix" result="shape" />
			<feColorMatrix in="SourceAlpha" type="matrix"
				values="0 0 0 0 0 0 0 0 0 0 0 0 0 0 0 0 0 0 127 0" result="hardAlpha" />
			<feOffset dx="1" dy="1" />
			<feGaussianBlur stdDeviation="0.75" />
			<feComposite in2="hardAlpha" operator="arithmetic" k2="-1" k3="1" />
			<feColorMatrix type="matrix" values="0 0 0 0 0 0 0 0 0 0 0 0 0 0 0 0 0 0 0.15 0" />
			<feBlend mode="normal" in2="shape" result="effect1_innerShadow_22_78" />
		</filter>
		<linearGradient id="paint0_linear_22_78" x1="8.41808" y1="0.581395" x2="8.41808"
			y2="14.5349" gradientUnits="userSpaceOnUse">
			<stop stop-opacity="0" />
			<stop offset="0.5" stop-opacity="0" />
			<stop offset="1" stop-opacity="0.2" />
		</linearGradient>
	</defs>
</svg>