<svg width="13" height="15" viewBox="0 0 13 15" fill="none" xmlns="http://www.w3.org/2000/svg">
<path d="M9.41 0H2.5C1.12 0 0 1.12 0 2.5V12.5C0 13.88 1.12 15 2.5 15H10.5C11.88 15 13 13.88 13 12.5V3.59L9.41 0ZM11 12.5C11 12.78 10.78 13 10.5 13H2.5C2.22 13 2 12.78 2 12.5V2.5C2 2.22 2.22 2 2.5 2H7V5C7 5.55 7.45 6 8 6H11V12.5ZM8 5V1L12 5H8Z" fill="context-fill"/>
<path d="M9.41 0H2.5C1.12 0 0 1.12 0 2.5V12.5C0 13.88 1.12 15 2.5 15H10.5C11.88 15 13 13.88 13 12.5V3.59L9.41 0ZM11 12.5C11 12.78 10.78 13 10.5 13H2.5C2.22 13 2 12.78 2 12.5V2.5C2 2.22 2.22 2 2.5 2H7V5C7 5.55 7.45 6 8 6H11V12.5ZM8 5V1L12 5H8Z" fill="url(#paint0_linear_118_87)"/>
<g filter="url(#filter0_i_118_87)">
<path d="M9.41 0H2.5C1.12 0 0 1.12 0 2.5V12.5C0 13.88 1.12 15 2.5 15H10.5C11.88 15 13 13.88 13 12.5V3.59L9.41 0ZM11 12.5C11 12.78 10.78 13 10.5 13H2.5C2.22 13 2 12.78 2 12.5V2.5C2 2.22 2.22 2 2.5 2H7V5C7 5.55 7.45 6 8 6H11V12.5ZM8 5V1L12 5H8Z" fill="white" fill-opacity="0.01"/>
</g>
<defs>
<filter id="filter0_i_118_87" x="0" y="0" width="14" height="16" filterUnits="userSpaceOnUse" color-interpolation-filters="sRGB">
<feFlood flood-opacity="0" result="BackgroundImageFix"/>
<feBlend mode="normal" in="SourceGraphic" in2="BackgroundImageFix" result="shape"/>
<feColorMatrix in="SourceAlpha" type="matrix" values="0 0 0 0 0 0 0 0 0 0 0 0 0 0 0 0 0 0 127 0" result="hardAlpha"/>
<feOffset dx="1" dy="1"/>
<feGaussianBlur stdDeviation="0.75"/>
<feComposite in2="hardAlpha" operator="arithmetic" k2="-1" k3="1"/>
<feColorMatrix type="matrix" values="0 0 0 0 0 0 0 0 0 0 0 0 0 0 0 0 0 0 0.15 0"/>
<feBlend mode="normal" in2="shape" result="effect1_innerShadow_118_87"/>
</filter>
<linearGradient id="paint0_linear_118_87" x1="6.49535" y1="0.581395" x2="6.49536" y2="14.5349" gradientUnits="userSpaceOnUse">
<stop stop-opacity="0"/>
<stop offset="0.5" stop-opacity="0"/>
<stop offset="1" stop-opacity="0.2"/>
</linearGradient>
</defs>
</svg>
