<svg width="16" height="15" viewBox="0 0 16 15" fill="none" xmlns="http://www.w3.org/2000/svg">
	<path
		d="M1.4552 4.32358C4.786 4.8161 4.38507 4.53817 5.1544 4.16966C5.62215 3.75 5.92711 3.55401 5.41653 3.09228C4.9425 2.6636 4.84768 0 6.69813 0C8.54858 0 8.39437 2.78445 7.93176 3.09228C7.56167 3.33854 7.95577 3.79909 8.42866 4.21875C9.38818 4.73659 10.7074 4.37488 11.7869 4.16966V7.24792C11.7869 8.47922 12.4037 8.37661 12.7121 8.17139C13.3289 7.40183 15.9127 7.41585 15.9127 9.41672C15.9127 11.4176 13.2809 11.5715 12.8183 10.9558C12.3557 10.3402 11.7869 10.8019 11.7869 11.5715C11.7869 12.3411 12.0953 13.7122 12.0953 14.3279C12.0953 14.8204 10.9627 15 9.83192 15C8.59829 15 7.18475 14.993 7.49316 14.5312C8.41838 14.2234 9.01119 11.5575 6.85233 11.5575C4.69348 11.5575 4.54273 13.2999 5.62215 14.5312C5.93671 14.8901 3.75115 15 3.75115 15C3.75115 15 1.88014 15 1.41239 14.6786C0.302121 10.6154 1.301 10.0696 1.91781 10.3262C2.74023 10.7879 4.38507 11.2496 4.38507 9.40269C4.38507 7.35432 2.79506 8.32531 1.76361 8.47922C0.992589 8.47922 0.992586 4.6314 1.4552 4.32358Z"
		fill="context-fill" />
	<path
		d="M1.4552 4.32358C4.786 4.8161 4.38507 4.53817 5.1544 4.16966C5.62215 3.75 5.92711 3.55401 5.41653 3.09228C4.9425 2.6636 4.84768 0 6.69813 0C8.54858 0 8.39437 2.78445 7.93176 3.09228C7.56167 3.33854 7.95577 3.79909 8.42866 4.21875C9.38818 4.73659 10.7074 4.37488 11.7869 4.16966V7.24792C11.7869 8.47922 12.4037 8.37661 12.7121 8.17139C13.3289 7.40183 15.9127 7.41585 15.9127 9.41672C15.9127 11.4176 13.2809 11.5715 12.8183 10.9558C12.3557 10.3402 11.7869 10.8019 11.7869 11.5715C11.7869 12.3411 12.0953 13.7122 12.0953 14.3279C12.0953 14.8204 10.9627 15 9.83192 15C8.59829 15 7.18475 14.993 7.49316 14.5312C8.41838 14.2234 9.01119 11.5575 6.85233 11.5575C4.69348 11.5575 4.54273 13.2999 5.62215 14.5312C5.93671 14.8901 3.75115 15 3.75115 15C3.75115 15 1.88014 15 1.41239 14.6786C0.302121 10.6154 1.301 10.0696 1.91781 10.3262C2.74023 10.7879 4.38507 11.2496 4.38507 9.40269C4.38507 7.35432 2.79506 8.32531 1.76361 8.47922C0.992589 8.47922 0.992586 4.6314 1.4552 4.32358Z"
		fill="url(#paint0_linear_22_90)" />
	<g filter="url(#filter0_i_22_90)">
		<path
			d="M1.4552 4.32358C4.786 4.8161 4.38507 4.53817 5.1544 4.16966C5.62215 3.75 5.92711 3.55401 5.41653 3.09228C4.9425 2.6636 4.84768 0 6.69813 0C8.54858 0 8.39437 2.78445 7.93176 3.09228C7.56167 3.33854 7.95577 3.79909 8.42866 4.21875C9.38818 4.73659 10.7074 4.37488 11.7869 4.16966V7.24792C11.7869 8.47922 12.4037 8.37661 12.7121 8.17139C13.3289 7.40183 15.9127 7.41585 15.9127 9.41672C15.9127 11.4176 13.2809 11.5715 12.8183 10.9558C12.3557 10.3402 11.7869 10.8019 11.7869 11.5715C11.7869 12.3411 12.0953 13.7122 12.0953 14.3279C12.0953 14.8204 10.9627 15 9.83192 15C8.59829 15 7.18475 14.993 7.49316 14.5312C8.41838 14.2234 9.01119 11.5575 6.85233 11.5575C4.69348 11.5575 4.54273 13.2999 5.62215 14.5312C5.93671 14.8901 3.75115 15 3.75115 15C3.75115 15 1.88014 15 1.41239 14.6786C0.302121 10.6154 1.301 10.0696 1.91781 10.3262C2.74023 10.7879 4.38507 11.2496 4.38507 9.40269C4.38507 7.35432 2.79506 8.32531 1.76361 8.47922C0.992589 8.47922 0.992586 4.6314 1.4552 4.32358Z"
			fill="white" fill-opacity="0.01" />
	</g>
	<defs>
		<filter id="filter0_i_22_90" x="0.912689" y="0" width="16" height="16"
			filterUnits="userSpaceOnUse" color-interpolation-filters="sRGB">
			<feFlood flood-opacity="0" result="BackgroundImageFix" />
			<feBlend mode="normal" in="SourceGraphic" in2="BackgroundImageFix" result="shape" />
			<feColorMatrix in="SourceAlpha" type="matrix"
				values="0 0 0 0 0 0 0 0 0 0 0 0 0 0 0 0 0 0 127 0" result="hardAlpha" />
			<feOffset dx="1" dy="1" />
			<feGaussianBlur stdDeviation="0.75" />
			<feComposite in2="hardAlpha" operator="arithmetic" k2="-1" k3="1" />
			<feColorMatrix type="matrix" values="0 0 0 0 0 0 0 0 0 0 0 0 0 0 0 0 0 0 0.15 0" />
			<feBlend mode="normal" in2="shape" result="effect1_innerShadow_22_90" />
		</filter>
		<linearGradient id="paint0_linear_22_90" x1="8.40733" y1="0.581395" x2="8.40733"
			y2="14.5349" gradientUnits="userSpaceOnUse">
			<stop stop-opacity="0" />
			<stop offset="0.5" stop-opacity="0" />
			<stop offset="1" stop-opacity="0.2" />
		</linearGradient>
	</defs>
</svg>